<?xml version="1.0" encoding="utf-8"?>
<!-- Generator: Adobe Illustrator 23.0.0, SVG Export Plug-In . SVG Version: 6.00 Build 0)  -->
<svg version="1.1" id="Calque_1" xmlns="http://www.w3.org/2000/svg" xmlns:xlink="http://www.w3.org/1999/xlink" x="0px" y="0px"
	 viewBox="0 0 1920 960" style="enable-background:new 0 0 1920 960;" xml:space="preserve">
<style type="text/css">
	.st0{opacity:0.293;clip-path:url(#SVGID_2_);}
	.st1{opacity:0.32;}
	.st2{fill:none;stroke:#C44433;stroke-width:1.559;stroke-linecap:round;stroke-linejoin:bevel;}
	.st3{fill:#FF7F41;}
	.st4{fill:#FF7F41;stroke:#FFFFFF;stroke-miterlimit:10;}
</style>
<g>
	<defs>
		<rect id="SVGID_1_" width="1920" height="960"/>
	</defs>
	<clipPath id="SVGID_2_">
		<use xlink:href="#SVGID_1_"  style="overflow:visible;"/>
	</clipPath>
	<g transform="translate(1920 1080) rotate(180)" class="st0">
		<g transform="translate(-187.954 335.514) rotate(-3)" class="st1">
			<g transform="translate(91.137 239.119)">
				<path class="st2" d="M1911.1,19.8l47.1,58.9l124.5-18.5L1911.1,19.8z"/>
				<path class="st2" d="M1788.3,40l170,38.7l-47.1-58.9L1788.3,40z"/>
				<path class="st2" d="M1754.6-86.2L1788.3,40l122.9-20.2L1754.6-86.2z"/>
				<path class="st2" d="M1896-173.7l-141.4,87.5l156.5,106L1896-173.7z"/>
				<path class="st2" d="M2074.4-128.3L1911.1,19.8L1896-173.7L2074.4-128.3z"/>
				<path class="st2" d="M2082.8-274.7c-18.5,5-186.8,101-186.8,101l178.4,45.4L2082.8-274.7z"/>
				<path class="st2" d="M1896-446.4l186.8,171.7l-186.8,101V-446.4z"/>
				<path class="st2" d="M1741.2-283.1L1896-173.7v-272.6L1741.2-283.1z"/>
				<path class="st2" d="M1727.7-480l168.3,33.7l-154.8,163.2L1727.7-480z"/>
				<path class="st2" d="M1554.4-252.8l186.8-30.3L1727.7-480L1554.4-252.8z"/>
				<path class="st2" d="M1524.1-381.6l203.6-98.5l-173.3,227.2L1524.1-381.6z"/>
				<path class="st2" d="M1386.1-289.8l168.3,37l-30.3-128.7L1386.1-289.8z"/>
				<path class="st2" d="M1338.9-348.7l47.1,58.9l138-91.7L1338.9-348.7z"/>
				<path class="st2" d="M1414.7-163.6l139.7-89.2l-168.3-37L1414.7-163.6z"/>
				<path class="st2" d="M1255.1-269.6l159.6,106l-28.6-126.2L1255.1-269.6z"/>
				<path class="st2" d="M1210.8-324.9l44.3,55.3l131-20.2L1210.8-324.9z"/>
				<path class="st2" d="M1583-123.2l158.2-159.9l13.5,196.9L1583-123.2z"/>
				<path class="st2" d="M1554.4-252.8l28.6,129.6l158.2-159.9L1554.4-252.8z"/>
				<path class="st2" d="M1414.7-163.6l168.3,40.4l-28.6-129.6L1414.7-163.6z"/>
				<path class="st2" d="M1382.7-82.8l32-80.8l168.3,40.4L1382.7-82.8z"/>
				<path class="st2" d="M1613.5,3.8L1583-123.2l-200.3,40.4L1613.5,3.8z"/>
				<path class="st2" d="M1754.6-86.2l-141.1,90L1583-123.2L1754.6-86.2z"/>
				<path class="st2" d="M1644.3,132L1613.5,3.8L1788.3,40L1644.3,132z"/>
				<path class="st2" d="M1814.8,170.2L1788.3,40l-144,92L1814.8,170.2z"/>
				<path class="st2" d="M1958.3,78.7l-143.4,91.4L1788.3,40L1958.3,78.7z"/>
				<path class="st2" d="M1613.5,3.8l-123.7,21L1644.3,132L1613.5,3.8z"/>
				<path class="st2" d="M1382.7-82.8l-124.5,20.8l231.7,86.9L1382.7-82.8z"/>
				<path class="st2" d="M1213.3-119.9l169.4,37l32-80.8L1213.3-119.9z"/>
				<path class="st2" d="M1258.2-62.1l-44.9-57.8l-131.8,55L1258.2-62.1z"/>
				<path class="st2" d="M1113.4-179.3l99.9,59.5l-131.8,55L1113.4-179.3z"/>
				<path class="st2" d="M1255.1-269.6l-141.6,90.3l99.8,59.5L1255.1-269.6z"/>
				<path class="st2" d="M1069.1-234.9l44.3,55.5l141.7-90.3L1069.1-234.9z"/>
				<path class="st2" d="M1038.8-366.4l171.9,41.5l-141.6,90L1038.8-366.4z"/>
				<path class="st2" d="M1338.9-348.7l-128.2,23.8l-48.7-63.7L1338.9-348.7z"/>
				<path class="st2" d="M1038.8-366.4L1007.4-494l154.7,105.5L1038.8-366.4z"/>
				<path class="st2" d="M1069.1-234.9l-156-108.8l125.7-22.7L1069.1-234.9z"/>
				<path class="st2" d="M1113.4-179.3l-186.8,34.2l142.5-89.8L1113.4-179.3z"/>
				<path class="st2" d="M1081.4-64.9L973.7-86.2l139.7-93.1L1081.4-64.9z"/>
				<path class="st2" d="M926.6-145.1l47.1,58.9l139.7-93.1L926.6-145.1z"/>
				<path class="st2" d="M770.7,19.8l203.1-106l-47.1-58.9L770.7,19.8z"/>
				<path class="st2" d="M755-184.7l171.7,39.5l-156,164.9L755-184.7z"/>
				<path class="st2" d="M600.1-23.1l170.5,42.9L755-184.7L600.1-23.1z"/>
				<path class="st2" d="M584.4-218l15.7,194.9L755-184.7L584.4-218z"/>
				<path class="st2" d="M741.5-381.6l171.7,37.9l-158.2,159L741.5-381.6z"/>
				<path class="st2" d="M926.6-145.1l-13.5-198.6L755-184.6L926.6-145.1z"/>
				<path class="st2" d="M1038.8-366.4L866-403.2l47.1,59.5L1038.8-366.4z"/>
				<path class="st2" d="M1007.4-494L866-403.2l172.8,36.7L1007.4-494z"/>
				<path class="st2" d="M840.8-529.9l166.6,35.9L866-403.2L840.8-529.9z"/>
				<path class="st2" d="M669.7-565.8l26.9,125.7l144.2-89.8L669.7-565.8z"/>
				<path class="st2" d="M866-403.2c-5.6,0-124.5,21.6-124.5,21.6l-44.9-58.6L866-403.2z"/>
				<path class="st2" d="M537.3-283.1l47.1,65.1l157.1-163.5L537.3-283.1z"/>
				<path class="st2" d="M525-480l171.7,39.8L537.3-283.1L525-480z"/>
				<path class="st2" d="M600.1-23.1L443.1-128.3L584.4-218L600.1-23.1z"/>
				<path class="st2" d="M412.8-259.5c4.5,1.1,171.7,41.5,171.7,41.5L443-128.3L412.8-259.5z"/>
				<path class="st2" d="M383.6-388.6c0,5.6,29.2,129,29.2,129l124.5-23.6L383.6-388.6z"/>
				<path class="st2" d="M525-480l-141.4,91.4l153.7,105.5L525-480z"/>
				<path class="st2" d="M525-701.6V-480l144.7-85.8L525-701.6z"/>
				<path class="st2" d="M370.1-582.7C374.6-580.4,525-480,525-480v-221.6L370.1-582.7z"/>
				<path class="st2" d="M182.8-553.5l29.2,131.3l158.2-160.4L182.8-553.5z"/>
				<path class="st2" d="M383.6-388.6l-13.5-194.1L211.9-422.2L383.6-388.6z"/>
				<path class="st2" d="M211.9-158.6l171.7-230l-171.7-33.7V-158.6z"/>
				<path class="st2" d="M56-264l156,105.5l-133.3,10L56-264z"/>
				<path class="st2" d="M297.8-41.9l145.3-86.4l-231.1-30.3L297.8-41.9z"/>
				<path class="st2" d="M133.9-77.8l163.8,35.9l-85.8-116.7L133.9-77.8z"/>
				<path class="st2" d="M1727.7-480l-244.9-49.9l41.2,148.4L1727.7-480z"/>
				<path class="st2" d="M1482.8-529.9l-143.9,181.2l185.1-32.8L1482.8-529.9z"/>
				<path class="st2" d="M1162.1-388.6l176.8,39.8l143.9-181.2L1162.1-388.6z"/>
				<path class="st2" d="M1007.4-494l186.8-23.2l-32.1,128.7L1007.4-494z"/>
				<path class="st2" d="M1194.2-517.3c7.5,3,130.8,56.9,130.8,56.9l-162.9,71.8L1194.2-517.3z"/>
				<path class="st2" d="M1482.8-529.9L1325-460.4l-130.8-56.9L1482.8-529.9z"/>
				<path class="st2" d="M1338.9-348.7c0,0-9.4-113.6-13.9-111.6l-162.9,71.8L1338.9-348.7z"/>
				<path class="st2" d="M525-701.6L182.8-553.5l187.4-29.2L525-701.6z"/>
				<path class="st2" d="M840.8-529.9L525-701.6l144.7,135.8L840.8-529.9z"/>
				<path class="st2" d="M182.8-553.5l29.2,131.3L56-404.6L182.8-553.5z"/>
				<path class="st2" d="M56-264l0-140.5l156,246L56-264z"/>
				<path class="st2" d="M211.9-422.2L56-404.6l156,246V-422.2z"/>
				<path class="st2" d="M133.9-77.8l-55.3-70.8l133.3-10L133.9-77.8z"/>
				<path class="st2" d="M211.9-158.6l200.8-101l30.3,131.3L211.9-158.6z"/>
				<path class="st2" d="M2082.8,60.2l-8.4-188.5L1911.1,19.8L2082.8,60.2z"/>
			</g>
			
				<rect x="805.4" y="-252.7" transform="matrix(0.7071 -0.7071 0.7071 0.7071 411.3172 503.4356)" class="st3" width="15.9" height="15.9"/>
			
				<rect x="1590" y="-101.6" transform="matrix(0.7071 -0.7071 0.7071 0.7071 534.2377 1102.511)" class="st3" width="15.9" height="15.9"/>
			
				<rect x="1038.3" y="-29.3" transform="matrix(0.7071 -0.7071 0.7071 0.7071 321.5592 733.5493)" class="st3" width="15.9" height="15.9"/>
			
				<rect x="293.7" y="71.1" transform="matrix(0.7071 -0.7071 0.7071 0.7071 31.8068 237.891)" class="st3" width="18.8" height="18.8"/>
			<g transform="matrix(-1, -0.05, 0.05, -1, 2066.1, 853.79)">
				
					<rect x="1244" y="726.9" transform="matrix(-0.9986 5.233847e-02 -5.233847e-02 -0.9986 2546.7048 1408.9299)" class="st3" width="21.8" height="21.8"/>
			</g>
			<rect x="1357.1" y="-53.7" class="st3" width="6" height="6"/>
			<rect x="1367.8" y="-53.7" class="st3" width="6" height="6"/>
			<rect x="1378.4" y="-53.7" class="st3" width="6" height="6"/>
			<rect x="372.5" y="182.7" class="st3" width="11" height="11"/>
			<circle class="st4" cx="589.7" cy="-286.6" r="8.4"/>
			<circle class="st4" cx="604.3" cy="-94.2" r="8.4"/>
			<circle class="st4" cx="1606.8" cy="-263.3" r="8.4"/>
			<circle class="st4" cx="1630.3" cy="-239.9" r="8.4"/>
			<circle class="st4" cx="1734.6" cy="168.1" r="8.4"/>
			<circle class="st3" cx="1209.1" cy="33.5" r="4.5"/>
			<circle class="st3" cx="1505.8" cy="75.5" r="9.4"/>
			<circle class="st3" cx="2002.3" cy="258.9" r="9.4"/>
			<circle class="st3" cx="1987.1" cy="66.1" r="9.4"/>
		</g>
	</g>
</g>
</svg>
