<svg xmlns="http://www.w3.org/2000/svg" xmlns:xlink="http://www.w3.org/1999/xlink" width="92.434" height="92.434" viewBox="0 0 92.434 92.434"><defs><style>.a{fill:#ff7f41;}.b{fill:#fff;}.c{filter:url(#a);}</style><filter id="a" x="0" y="0" width="92.434" height="92.434" filterUnits="userSpaceOnUse"><feOffset dx="4" dy="4" input="SourceAlpha"/><feGaussianBlur stdDeviation="3" result="b"/><feFlood flood-color="#050506" flood-opacity="0.18"/><feComposite operator="in" in2="b"/><feComposite in="SourceGraphic"/></filter></defs><g transform="translate(-2.259 -2.259)"><g class="c" transform="matrix(1, 0, 0, 1, 2.26, 2.26)"><circle class="a" cx="37.217" cy="37.217" r="37.217" transform="translate(5 5)"/></g><g transform="translate(21.259 16.567)"><ellipse class="b" cx="4.103" cy="1.066" rx="4.103" ry="1.066" transform="translate(3.096 22.795)"/><path class="b" d="M60.957,76.35c-.328.133-.662.26-1,.374a17.028,17.028,0,0,1-12.194-.517,13.115,13.115,0,0,0-3.775,3.248,12.9,12.9,0,0,0-2.746,7.595H49.19a5.053,5.053,0,0,1,10.073,0h7.943a12.891,12.891,0,0,0-2.754-7.614A13.12,13.12,0,0,0,60.957,76.35Z" transform="translate(-29.656 -33.607)"/><path class="b" d="M80.122,60.777l-.009,0c.009.02,0,.032-.008.052L80.053,61c.158-.675.3-1.434.414-2.256A16.314,16.314,0,0,1,80.122,60.777Z" transform="translate(-39.248 -29.29)"/><path class="b" d="M67.237,50.5c-.02.678-.075,1.331-.153,1.949-.005.032-.008.06-.011.089-.109.822-.256,1.581-.414,2.256A19.882,19.882,0,0,1,65.7,57.86a.818.818,0,0,1-.038.083,16.822,16.822,0,0,1-2.777,4.218l0,0a14.9,14.9,0,0,1-12.563,5.592,21.978,21.978,0,0,1-7.359-1.544.669.669,0,0,1-.086-.037A16.886,16.886,0,0,1,33.432,54.4l-7.578-.063.063-7.385,15.2.032a9.7,9.7,0,1,0,18.229,6.606c0-.006,0-.014.006-.02a9.765,9.765,0,0,0-2.32-9.634,9.641,9.641,0,0,0-6.747-2.9V33.64a17.09,17.09,0,0,1,3.772.446l0,.009c.02-.009.032,0,.052.011a24.6,24.6,0,0,1,6.042,2.757.013.013,0,0,0,.014.005A14.937,14.937,0,0,1,67.237,50.5Z" transform="translate(-25.854 -23.087)"/><path class="b" d="M0,0H18.016a2.277,2.277,0,0,1,2.277,2.277V5.035a2.277,2.277,0,0,1-2.277,2.277H0a0,0,0,0,1,0,0V0A0,0,0,0,1,0,0Z" transform="translate(15.108 11.733) rotate(-35.322)"/><rect class="b" width="5.467" height="3.623" transform="translate(11.089 16.988) rotate(-35.322)"/><rect class="b" width="1.476" height="1.476" transform="translate(9.841 19.188) rotate(-35.322)"/><circle class="a" cx="2.179" cy="2.179" r="2.179" transform="translate(24.351 10.347)"/><path class="b" d="M58.307,43.458" transform="translate(-33.874 -25.513)"/></g></g></svg>