<svg xmlns="http://www.w3.org/2000/svg" xmlns:xlink="http://www.w3.org/1999/xlink" width="110" height="110" viewBox="0 0 110 110"><defs><style>.a{fill:#ff7f41;}.b{fill:#fff;}.c{fill:none;}.d{filter:url(#a);}</style><filter id="a" x="0" y="0" width="110" height="110" filterUnits="userSpaceOnUse"><feOffset dx="4" dy="4" input="SourceAlpha"/><feGaussianBlur stdDeviation="4" result="b"/><feFlood flood-color="#050506" flood-opacity="0.18"/><feComposite operator="in" in2="b"/><feComposite in="SourceGraphic"/></filter></defs><g transform="translate(-266.031 -666.188)"><g class="d" transform="matrix(1, 0, 0, 1, 266.03, 666.19)"><circle class="a" cx="43" cy="43" r="43" transform="translate(8 8)"/></g><path class="b" d="M0,0H41.188a4.266,4.266,0,0,1,4.266,4.266v0a4.266,4.266,0,0,1-4.266,4.266H0a0,0,0,0,1,0,0V0A0,0,0,0,1,0,0Z" transform="translate(304.362 713.953) rotate(-35.322)"/><path class="b" d="M299.594,735.485l-2.265,1.605-8.037,1.849a.569.569,0,0,1-.586-.849l4.554-6.741,2.265-1.605Z" transform="translate(-1.904 -7.25)"/><path class="b" d="M0,0H22.717a1.227,1.227,0,0,1,1.227,1.227v.622a0,0,0,0,1,0,0H1.849A1.849,1.849,0,0,1,0,0V0A0,0,0,0,1,0,0Z" transform="translate(313.261 703.25) rotate(-35.322)"/><path class="b" d="M1.491,0h8.58a0,0,0,0,1,0,0V8.542a0,0,0,0,1,0,0H1.491A1.491,1.491,0,0,1,0,7.051V1.491A1.491,1.491,0,0,1,1.491,0Z" transform="translate(294.703 720.796) rotate(-35.322)"/><rect class="a" width="31.139" height="1.712" transform="translate(305.724 717.209) rotate(-35.322)"/><g transform="translate(303.878 704.03)"><path class="b" d="M331.129,741.423c-.379.154-.764.3-1.158.432a19.661,19.661,0,0,1-14.083-.6,15.136,15.136,0,0,0-4.36,3.752,14.892,14.892,0,0,0-3.17,8.771h9.182a5.835,5.835,0,0,1,11.633,0h9.173a14.888,14.888,0,0,0-3.181-8.794A15.152,15.152,0,0,0,331.129,741.423Z" transform="translate(-308.358 -712.783)"/><path class="b" d="M325.425,708.509" transform="translate(-310.585 -708.509)"/></g><g transform="translate(306.907 705.427)"><path class="c" d="M318.415,732.005a9.25,9.25,0,0,0,12.926,0,8.879,8.879,0,0,0,1.669-10.459L318.35,731.934C318.373,731.957,318.392,731.983,318.415,732.005Z" transform="translate(-312.69 -711.607)"/><path class="b" d="M312.657,738.992c-.29-.285-.549-.589-.813-.889l0,0c.263.3.523.605.813.89a16.278,16.278,0,0,0,22.75,0c.074-.072.144-.147.216-.22-.071.072-.143.145-.215.216A16.279,16.279,0,0,1,312.657,738.992Z" transform="translate(-311.841 -713.767)"/><path class="b" d="M339.894,737.08a15.637,15.637,0,0,0,3.509-6.906h-.034A15.664,15.664,0,0,1,339.894,737.08Z" transform="translate(-315.502 -712.733)"/><path class="b" d="M343.55,721.457h.047a15.552,15.552,0,0,0-1.865-4.534l-.014.01A15.97,15.97,0,0,1,343.55,721.457Z" transform="translate(-315.74 -711.003)"/><path class="b" d="M337.82,716.935l-5.658,4.009a8.879,8.879,0,0,1-1.669,10.459,9.25,9.25,0,0,1-12.926,0c-.023-.023-.043-.048-.065-.071l-5.656,4.008c.263.3.523.6.813.89a16.279,16.279,0,0,0,22.748,0c.072-.071.143-.144.215-.216l.1-.1c.068-.07.135-.142.2-.214s.13-.141.193-.212l.121-.135a15.665,15.665,0,0,0,3.475-6.906h.034a15.644,15.644,0,0,0-.044-6.988h-.047A15.97,15.97,0,0,0,337.82,716.935Z" transform="translate(-311.842 -711.005)"/><path class="b" d="M341.421,716.54l.014-.01a15.842,15.842,0,0,0-1.994-2.619A15.386,15.386,0,0,1,341.421,716.54Z" transform="translate(-315.443 -710.61)"/><path class="b" d="M337.365,712.084a16.025,16.025,0,0,0-2.994-1.969l-.006,0A15.91,15.91,0,0,1,337.365,712.084Z" transform="translate(-314.78 -710.115)"/><path class="b" d="M326.151,715.181a9.177,9.177,0,0,1,6.21,2.62,10.575,10.575,0,0,1,1.792,2.458l5.743-3.895a19.11,19.11,0,0,0-2.189-2.948l-.059-.063c-.123-.129-.247-.256-.375-.383s-.287-.275-.433-.409l-.08-.073c-.149-.134-.3-.265-.451-.392l-.016-.013a15.912,15.912,0,0,0-3-1.964Z" transform="translate(-313.708 -710.116)"/></g><circle class="a" cx="2.116" cy="2.116" r="2.116" transform="translate(324 706.611)"/><rect class="a" width="10.787" height="5.273" transform="translate(332.9 692.973) rotate(54.678)"/><rect class="a" width="10.004" height="1.689" transform="translate(287.29 724.116) rotate(54.678)"/></g></svg>