<svg xmlns="http://www.w3.org/2000/svg" xmlns:xlink="http://www.w3.org/1999/xlink" width="87.783" height="87.783" viewBox="0 0 87.783 87.783"><defs><style>.a{fill:#ff7f41;}.b{fill:#fff;}.c{filter:url(#a);}</style><filter id="a" x="0" y="0" width="87.783" height="87.783" filterUnits="userSpaceOnUse"><feOffset dx="4" dy="4" input="SourceAlpha"/><feGaussianBlur stdDeviation="4" result="b"/><feFlood flood-color="#050506" flood-opacity="0.18"/><feComposite operator="in" in2="b"/><feComposite in="SourceGraphic"/></filter></defs><g transform="translate(0.74 0.74)"><g transform="translate(7.26 7.26)"><g class="c" transform="matrix(1, 0, 0, 1, -8, -8)"><circle class="a" cx="31.892" cy="31.892" r="31.892" transform="translate(8 8)"/></g></g><g transform="translate(19.569 16.372)"><path class="b" d="M32.184,60.278c.09.09.183.178.274.266l.125.121c.089.085.179.167.27.25s.178.161.268.239l.17.15A19.887,19.887,0,0,0,42,65.616v.042a20.057,20.057,0,0,0,8.814-.055v-.058a19.856,19.856,0,0,0,9.022-4.729l.079-.073c.163-.152.324-.306.483-.465.176-.176.347-.355.515-.537l.092-.1c.169-.185.335-.371.495-.56l.017-.019a19.861,19.861,0,0,0,4.467-9.822l.019.007a19.971,19.971,0,0,0-8.513-19.593l0,.007a19.949,19.949,0,0,0-12.9-3.371l-.142.012c-.225.021-.45.046-.675.074l-.232.03q-.309.043-.615.094l-.292.053c-.137.025-.274.053-.41.081q-.252.052-.5.111c-.1.023-.2.047-.3.072q-.336.084-.669.18l-.172.049q-.679.2-1.346.454l-.006,0a19.962,19.962,0,0,0-7.048,32.775ZM54.306,38.148a11.338,11.338,0,1,1-16.034,0A11.339,11.339,0,0,1,54.306,38.148Z" transform="translate(-26.34 -23.1)"/><path class="b" d="M79.747,33.72l6.14-6.139L82.745,24.44l-3.057-3.056-6.177,6.177A19.947,19.947,0,0,1,79.747,33.72Z" transform="translate(-43.079 -21.384)"/></g><g transform="translate(27.606 27.525)"><path class="a" d="M59.134,42.161a11.913,11.913,0,1,1-16.847,0A11.914,11.914,0,0,1,59.134,42.161Z" transform="translate(-38.798 -38.673)"/><path class="b" d="M58.553,46.813a8.213,8.213,0,1,1-11.615,0A8.213,8.213,0,0,1,58.553,46.813Z" transform="translate(-40.833 -40.707)"/><path class="a" d="M57.888,52.138a3.977,3.977,0,1,1-5.624,0A3.977,3.977,0,0,1,57.888,52.138Z" transform="translate(-43.163 -43.038)"/></g><path class="b" d="M79.823,37.044,74.556,36.2l-.933-5.353Z" transform="translate(-23.55 -8.37)"/><path class="b" d="M73.624,30.806l.625-.073,6.084,5.76-.509.51Z" transform="translate(-23.55 -8.33)"/><path class="a" d="M74.463,27.795,73.8,24l-4.324,4.324h0l.006.036v.01l.009.051.431,2.472V30.9l-.855.855-1.914,1.914-1.873,1.873-8.809,8.778a5.67,5.67,0,0,1,1.546,1.6l8.794-8.837L68.7,35.222l1.927-1.9.977-.964.014,0,2.207.354.046.007h0l.017-.017.343-.344,3.964-3.963Z" transform="translate(-17.465 -5.941)"/><circle class="a" cx="2.545" cy="2.545" r="2.545" transform="translate(37.241 36.686)"/></g></svg>