<svg xmlns="http://www.w3.org/2000/svg" xmlns:xlink="http://www.w3.org/1999/xlink" width="92.434" height="92.434" viewBox="0 0 92.434 92.434"><defs><style>.a{fill:#ff7f41;}.b{fill:#fff;}.c{filter:url(#a);}</style><filter id="a" x="0" y="0" width="92.434" height="92.434" filterUnits="userSpaceOnUse"><feOffset dx="4" dy="4" input="SourceAlpha"/><feGaussianBlur stdDeviation="3" result="b"/><feFlood flood-color="#050506" flood-opacity="0.18"/><feComposite operator="in" in2="b"/><feComposite in="SourceGraphic"/></filter></defs><g transform="translate(-2.259 -2.259)"><g transform="translate(7.259 7.259)"><g class="c" transform="matrix(1, 0, 0, 1, -5, -5)"><circle class="a" cx="37.217" cy="37.217" r="37.217" transform="translate(5 5)"/></g></g><g transform="translate(20.07 25.368)"><path class="b" d="M75.314,38,70.331,33.02l-5,5a15.77,15.77,0,0,0-17.791.641,12.132,12.132,0,1,0-6.264,15.869A15.943,15.943,0,1,0,70.355,42.96ZM36.4,48.155a4.72,4.72,0,1,1,4.72-4.72A4.719,4.719,0,0,1,36.4,48.155Zm20.54,12.438A9.064,9.064,0,1,1,66,51.53,9.063,9.063,0,0,1,56.938,60.593Z" transform="translate(-24.276 -31.312)"/><path class="b" d="M75.314,38,70.331,33.02l-5,5a15.77,15.77,0,0,0-17.791.641,12.132,12.132,0,1,0-6.264,15.869A15.943,15.943,0,1,0,70.355,42.96ZM36.4,48.155a4.72,4.72,0,1,1,4.72-4.72A4.719,4.719,0,0,1,36.4,48.155Zm20.54,12.438A9.064,9.064,0,1,1,66,51.53,9.063,9.063,0,0,1,56.938,60.593Z" transform="translate(-24.276 -31.312)"/><path class="b" d="M31.679,71.143h-7.4l.038-25.016h7.365Z" transform="translate(-24.276 -34.973)"/></g></g></svg>