<svg xmlns="http://www.w3.org/2000/svg" xmlns:xlink="http://www.w3.org/1999/xlink" width="534" height="459" viewBox="0 0 534 459"><defs><style>.a{fill:#fff;stroke:#707070;}.b{clip-path:url(#a);}.c,.d,.f{fill:none;stroke-linecap:round;stroke-linejoin:round;}.c,.d{stroke:#ff7f41;}.c{stroke-width:2px;}.e{fill:#ff7f41;}.f{stroke:#fff;}.g{filter:url(#ar);}.h{filter:url(#ap);}.i{filter:url(#an);}.j{filter:url(#al);}.k{filter:url(#aj);}.l{filter:url(#ah);}.m{filter:url(#af);}.n{filter:url(#ad);}.o{filter:url(#ab);}.p{filter:url(#z);}.q{filter:url(#x);}.r{filter:url(#v);}.s{filter:url(#t);}.t{filter:url(#r);}.u{filter:url(#p);}.v{filter:url(#n);}.w{filter:url(#l);}.x{filter:url(#j);}.y{filter:url(#h);}.z{filter:url(#f);}.aa{filter:url(#d);}.ab{filter:url(#b);}</style><clipPath id="a"><rect class="a" width="534" height="459" transform="translate(200 1181)"/></clipPath><filter id="b" x="220.648" y="172.872" width="78.011" height="20" filterUnits="userSpaceOnUse"><feOffset dx="4" dy="4" input="SourceAlpha"/><feGaussianBlur stdDeviation="3" result="c"/><feFlood flood-opacity="0.059"/><feComposite operator="in" in2="c"/><feComposite in="SourceGraphic"/></filter><filter id="d" x="113.289" y="149.969" width="130.544" height="191.713" filterUnits="userSpaceOnUse"><feOffset dx="4" dy="4" input="SourceAlpha"/><feGaussianBlur stdDeviation="3" result="e"/><feFlood flood-opacity="0.059"/><feComposite operator="in" in2="e"/><feComposite in="SourceGraphic"/></filter><filter id="f" x="275.87" y="149.969" width="127.943" height="183.564" filterUnits="userSpaceOnUse"><feOffset dx="4" dy="4" input="SourceAlpha"/><feGaussianBlur stdDeviation="3" result="g"/><feFlood flood-opacity="0.059"/><feComposite operator="in" in2="g"/><feComposite in="SourceGraphic"/></filter><filter id="h" x="107.3" y="307.806" width="106.285" height="98.701" filterUnits="userSpaceOnUse"><feOffset dx="4" dy="4" input="SourceAlpha"/><feGaussianBlur stdDeviation="3" result="i"/><feFlood flood-opacity="0.059"/><feComposite operator="in" in2="i"/><feComposite in="SourceGraphic"/></filter><filter id="j" x="143.115" y="305.502" width="206.556" height="102.948" filterUnits="userSpaceOnUse"><feOffset dx="4" dy="4" input="SourceAlpha"/><feGaussianBlur stdDeviation="3" result="k"/><feFlood flood-opacity="0.059"/><feComposite operator="in" in2="k"/><feComposite in="SourceGraphic"/></filter><filter id="l" x="159.603" y="305.248" width="88.08" height="36.716" filterUnits="userSpaceOnUse"><feOffset dx="4" dy="4" input="SourceAlpha"/><feGaussianBlur stdDeviation="3" result="m"/><feFlood flood-opacity="0.059"/><feComposite operator="in" in2="m"/><feComposite in="SourceGraphic"/></filter><filter id="n" x="215.839" y="331.665" width="162.049" height="59.51" filterUnits="userSpaceOnUse"><feOffset dx="4" dy="4" input="SourceAlpha"/><feGaussianBlur stdDeviation="3" result="o"/><feFlood flood-opacity="0.059"/><feComposite operator="in" in2="o"/><feComposite in="SourceGraphic"/></filter><filter id="p" x="329.369" y="303.563" width="83.662" height="92.646" filterUnits="userSpaceOnUse"><feOffset dx="4" dy="4" input="SourceAlpha"/><feGaussianBlur stdDeviation="3" result="q"/><feFlood flood-opacity="0.059"/><feComposite operator="in" in2="q"/><feComposite in="SourceGraphic"/></filter><filter id="r" x="163.661" y="279.079" width="20" height="46.459" filterUnits="userSpaceOnUse"><feOffset dx="4" dy="4" input="SourceAlpha"/><feGaussianBlur stdDeviation="3" result="s"/><feFlood flood-opacity="0.059"/><feComposite operator="in" in2="s"/><feComposite in="SourceGraphic"/></filter><filter id="t" x="337.211" y="279.079" width="20" height="46.459" filterUnits="userSpaceOnUse"><feOffset dx="4" dy="4" input="SourceAlpha"/><feGaussianBlur stdDeviation="3" result="u"/><feFlood flood-opacity="0.059"/><feComposite operator="in" in2="u"/><feComposite in="SourceGraphic"/></filter><filter id="v" x="163.661" y="371.175" width="193.55" height="101.256" filterUnits="userSpaceOnUse"><feOffset dx="4" dy="4" input="SourceAlpha"/><feGaussianBlur stdDeviation="3" result="w"/><feFlood flood-opacity="0.059"/><feComposite operator="in" in2="w"/><feComposite in="SourceGraphic"/></filter><filter id="x" x="344.209" y="186.528" width="54.559" height="46.792" filterUnits="userSpaceOnUse"><feOffset dx="4" dy="4" input="SourceAlpha"/><feGaussianBlur stdDeviation="3" result="y"/><feFlood flood-opacity="0.059"/><feComposite operator="in" in2="y"/><feComposite in="SourceGraphic"/></filter><filter id="z" x="218.77" y="104.305" width="47.028" height="47.028" filterUnits="userSpaceOnUse"><feOffset dx="4" dy="4" input="SourceAlpha"/><feGaussianBlur stdDeviation="3" result="aa"/><feFlood flood-opacity="0.059"/><feComposite operator="in" in2="aa"/><feComposite in="SourceGraphic"/></filter><filter id="ab" x="243.03" y="107.611" width="33.534" height="22.961" filterUnits="userSpaceOnUse"><feOffset dx="4" dy="4" input="SourceAlpha"/><feGaussianBlur stdDeviation="3" result="ac"/><feFlood flood-opacity="0.059"/><feComposite operator="in" in2="ac"/><feComposite in="SourceGraphic"/></filter><filter id="ad" x="208.612" y="111.248" width="26.771" height="40.001" filterUnits="userSpaceOnUse"><feOffset dx="4" dy="4" input="SourceAlpha"/><feGaussianBlur stdDeviation="3" result="ae"/><feFlood flood-opacity="0.059"/><feComposite operator="in" in2="ae"/><feComposite in="SourceGraphic"/></filter><filter id="af" x="284.291" y="111.248" width="26.771" height="40.115" filterUnits="userSpaceOnUse"><feOffset dx="4" dy="4" input="SourceAlpha"/><feGaussianBlur stdDeviation="3" result="ag"/><feFlood flood-opacity="0.059"/><feComposite operator="in" in2="ag"/><feComposite in="SourceGraphic"/></filter><filter id="ah" x="213.701" y="63.643" width="95.563" height="77.477" filterUnits="userSpaceOnUse"><feOffset dx="4" dy="4" input="SourceAlpha"/><feGaussianBlur stdDeviation="3" result="ai"/><feFlood flood-opacity="0.059"/><feComposite operator="in" in2="ai"/><feComposite in="SourceGraphic"/></filter><filter id="aj" x="215.383" y="95.385" width="54.455" height="89.435" filterUnits="userSpaceOnUse"><feOffset dx="4" dy="4" input="SourceAlpha"/><feGaussianBlur stdDeviation="3" result="ak"/><feFlood flood-opacity="0.059"/><feComposite operator="in" in2="ak"/><feComposite in="SourceGraphic"/></filter><filter id="al" x="226.652" y="90.907" width="77.782" height="93.8" filterUnits="userSpaceOnUse"><feOffset dx="4" dy="4" input="SourceAlpha"/><feGaussianBlur stdDeviation="3" result="am"/><feFlood flood-opacity="0.059"/><feComposite operator="in" in2="am"/><feComposite in="SourceGraphic"/></filter><filter id="an" x="275.772" y="107.28" width="25.048" height="32.925" filterUnits="userSpaceOnUse"><feOffset dx="4" dy="4" input="SourceAlpha"/><feGaussianBlur stdDeviation="3" result="ao"/><feFlood flood-opacity="0.059"/><feComposite operator="in" in2="ao"/><feComposite in="SourceGraphic"/></filter><filter id="ap" x="253.741" y="104.321" width="47" height="47.037" filterUnits="userSpaceOnUse"><feOffset dx="4" dy="4" input="SourceAlpha"/><feGaussianBlur stdDeviation="3" result="aq"/><feFlood flood-opacity="0.059"/><feComposite operator="in" in2="aq"/><feComposite in="SourceGraphic"/></filter><filter id="ar" x="223.549" y="89.682" width="23.52" height="25.861" filterUnits="userSpaceOnUse"><feOffset dx="4" dy="4" input="SourceAlpha"/><feGaussianBlur stdDeviation="3" result="as"/><feFlood flood-opacity="0.059"/><feComposite operator="in" in2="as"/><feComposite in="SourceGraphic"/></filter></defs><g class="b" transform="translate(-200 -1181)"><g transform="translate(-156 -60)"><g transform="translate(356.001 1251.557)"><g class="ab" transform="matrix(1, 0, 0, 1, 0, -10.56)"><line class="c" x2="58.011" transform="translate(226.65 178.87)"/></g><g class="aa" transform="matrix(1, 0, 0, 1, 0, -10.56)"><path class="c" d="M361.813,223.2,375.7,121.713a35.482,35.482,0,0,1,34.141-26.431h26.744a35.448,35.448,0,0,0,35.649-35.251V51.61" transform="translate(-242.4 104.36)"/></g><g class="z" transform="matrix(1, 0, 0, 1, 0, -10.56)"><path class="c" d="M526.742,215.06l-11.38-93.205A35.476,35.476,0,0,0,480.993,95.4h-26.63a35.45,35.45,0,0,1-35.45-35.45V51.61" transform="translate(-137.04 104.36)"/></g><g class="y" transform="matrix(1, 0, 0, 1, 0, -10.56)"><path class="c" d="M401.714,183.627s-25.407,14.083-39.49-30.3,34.8-47.428,43.473-45.948c15.9,2.845,39.831,16.53,39.831,16.53" transform="translate(-246.31 206.75)"/></g><g class="x" transform="matrix(1, 0, 0, 1, 0, -10.56)"><path class="c" d="M543.21,132.812a368.194,368.194,0,0,0-101.939,41.311c-52.634,31.3-83.93,7.966-61.852-16.53,12.888-13.77,9.531-28.166,50.529-32.747s46.83-2.447,64.3-5.69,41.908-18.92,64.555-10.356C558.772,108.657,551.461,109.539,543.21,132.812Z" transform="translate(-223.13 205.21)"/></g><g class="w" transform="matrix(1, 0, 0, 1, 0, -10.56)"><path class="c" d="M378.163,110.659s33.657-15.733,67.343,11.836" transform="translate(-212.23 205.06)"/></g><g class="v" transform="matrix(1, 0, 0, 1, 0, -10.56)"><path class="c" d="M397.813,154.748H539.385s7-10.868-43.359-39.148" transform="translate(-175.97 222.43)"/></g><g class="u" transform="matrix(1, 0, 0, 1, 0, -10.56)"><path class="c" d="M437.813,109.9c43.331-15.051,78.325,11.551,56.9,46.859S453.746,173.2,453.746,173.2" transform="translate(-102.17 203.97)"/></g><g class="t" transform="matrix(1, 0, 0, 1, 0, -10.56)"><line class="c" y2="26.459" transform="translate(169.66 285.08)"/></g><g class="s" transform="matrix(1, 0, 0, 1, 0, -10.56)"><line class="c" y2="26.459" transform="translate(343.21 285.08)"/></g><g class="r" transform="matrix(1, 0, 0, 1, 0, -10.56)"><path class="c" d="M379.473,146.573v64.043h173.55V129.36" transform="translate(-209.81 247.81)"/></g><path class="d" d="M436.632,635.478V172.44H404.283V635.478" transform="translate(-164.037 316.744)"/><path class="d" d="M404.852,662.269,379.473,157.92h173.55L527.646,662.269" transform="translate(-209.814 289.954)"/><g class="q" transform="matrix(1, 0, 0, 1, 0, -10.56)"><path class="c" d="M477.273,91.033a35.476,35.476,0,0,0-34.34-26.573" transform="translate(-92.72 128.07)"/></g><path class="e" d="M472.153,89.742l-5.32-5.32-5.349,5.32a16.9,16.9,0,0,0-18.977.683,12.945,12.945,0,1,0-11.892,18.038,13.21,13.21,0,0,0,5.206-1.081,17.071,17.071,0,1,0,31.04-12.205Zm-41.538,10.84a5.064,5.064,0,1,1,5.036-5.093v.057A5.062,5.062,0,0,1,430.615,100.582Zm21.907,13.258a9.673,9.673,0,1,1,9.673-9.673,9.674,9.674,0,0,1-9.673,9.673Z" transform="translate(-139.357 150.924)"/><path class="d" d="M415.653,335.18l46.6,33.913a8.535,8.535,0,0,0,12.4-11.38l-13.77-22.448" transform="translate(-143.059 617.014)"/><path class="d" d="M443.424,335.18,396.85,369.093a8.535,8.535,0,0,1-12.4-11.38l13.77-22.448" transform="translate(-203.178 617.014)"/><line class="d" x2="45.977" transform="translate(272.595 937.684)"/><line class="d" x2="45.948" transform="translate(195.465 937.684)"/><path class="d" d="M433.8,163s-7.682,42.079,18.095,42.676" transform="translate(-111.557 299.327)"/><path class="d" d="M398.758,163s7.682,42.079-18.095,42.676" transform="translate(-207.618 299.327)"/><line class="d" x2="172.128" transform="translate(170.371 462.184)"/><line class="d" x1="3.727" y2="81.967" transform="translate(295.583 855.717)"/><line class="d" x2="3.727" y2="81.967" transform="translate(213.076 855.717)"/><path class="d" d="M422.1,333.66l-23.358,19.46a5.691,5.691,0,0,1-8.009-.774,5.756,5.756,0,0,1-.754-1.189c-.74-2.049-.2-4.637,3.784-7.653" transform="translate(-190.955 614.209)"/><path class="d" d="M419.353,333.66l23.358,19.46a5.691,5.691,0,0,0,8.006-.814,5.571,5.571,0,0,0,.728-1.149c.768-2.049.228-4.637-3.756-7.653" transform="translate(-136.232 614.209)"/><line class="f" x1="8.706" y2="81.284" transform="translate(135.092 217.735)"/><path class="e" d="M371.813,18.464h0v.2a27.055,27.055,0,0,0,.512-2.7A17.129,17.129,0,0,1,371.813,18.464Z" transform="translate(-223.947 28.025)"/><g class="p" transform="matrix(1, 0, 0, 1, 0, -10.56)"><circle class="c" cx="13.514" cy="13.514" r="13.514" transform="translate(224.77 110.31)"/></g><g class="o" transform="matrix(1, 0, 0, 1, 0, -10.56)"><path class="c" d="M407.513,39.277l.284-.228a9.163,9.163,0,0,1,12.205,0l.228.2" transform="translate(-158.08 76.89)"/></g><g class="n" transform="matrix(1, 0, 0, 1, 0, -10.56)"><path class="c" d="M402.044,38c-3.727,0-6.771,4.467-6.771,9.986S398.317,58,402.044,58" transform="translate(-180.66 79.25)"/></g><g class="m" transform="matrix(1, 0, 0, 1, 0, -10.56)"><path class="c" d="M421.873,58.115c3.756,0,6.771-4.5,6.771-10.015S425.629,38,421.873,38" transform="translate(-131.58 79.25)"/></g><g class="l" transform="matrix(1, 0, 0, 1, 0, -10.56)"><path class="c" d="M468.351,48.957a19.906,19.906,0,0,0,4.182-13.969c-1.11-7.6-5.975-13.315-15.875-13.713a59.354,59.354,0,0,0-19.034,2.845,74.608,74.608,0,0,0-16.416,6.629l-1.679-7.4s-21.4,6.771-16.388,19.916c0,0-10.015,3.13-4.324,30.073a3.125,3.125,0,0,0,.427-.37c1.508-1.451,6.544-7.255,7.511-20.115a57.435,57.435,0,0,0,0-5.861s1.166.683,3.187,1.65c7.483,3.642,27.313,11.665,48.367,6.714a73.426,73.426,0,0,0,.967,9.73,13.484,13.484,0,0,1,4.637,10.129,13.78,13.78,0,0,1-.228,2.219,9.088,9.088,0,0,0,1.252,1.309s.882-2.561,1.906-6.174C469.461,64.434,472.733,50.408,468.351,48.957Z" transform="translate(-177.35 48.38)"/></g><g class="k" transform="matrix(1, 0, 0, 1, 0, -10.56)"><path class="c" d="M405.677,32.45c-.967,12.945-6,18.635-7.568,20.115a50.474,50.474,0,0,0-.455,7.056c0,23.3,15.42,42.193,34.454,42.193" transform="translate(-176.27 69.01)"/></g><g class="j" transform="matrix(1, 0, 0, 1, 0, -10.56)"><path class="c" d="M424.721,104.43c19.034,0,34.454-18.891,34.454-42.193a51.118,51.118,0,0,0-.541-7.34c-1.024,3.613-1.906,6.174-1.906,6.174a9.086,9.086,0,0,1-1.252-1.309,13.545,13.545,0,1,1-4.41-12.348,73.416,73.416,0,0,1-.967-9.73c-21.167,4.95-41-3.073-48.366-6.714" transform="translate(-168.74 66.28)"/></g><g class="i" transform="matrix(1, 0, 0, 1, 0, -10.56)"><path class="c" d="M423.433,49.1a13.822,13.822,0,0,0,.228-2.219,13.486,13.486,0,0,0-4.638-10.129" transform="translate(-136.84 76.94)"/></g><g class="h" transform="matrix(1, 0, 0, 1, 0, -10.56)"><path class="c" d="M433.574,38.933a13.518,13.518,0,1,0,4.41,12.348" transform="translate(-151.39 74.76)"/></g><g class="g" transform="matrix(1, 0, 0, 1, 0, -10.56)"><path class="c" d="M403.709,32.07c-2.02-.967-3.186-1.65-3.186-1.65v5.861" transform="translate(-170.97 65.26)"/></g></g></g></g></svg>