<svg xmlns="http://www.w3.org/2000/svg" xmlns:xlink="http://www.w3.org/1999/xlink" width="178.017" height="522.417" viewBox="0 0 178.017 522.417"><defs><style>.a{opacity:0.796;}.b,.c{fill:none;stroke-linejoin:round;}.b,.c,.e{stroke:#ff7f41;}.b{stroke-linecap:round;}.d{fill:#ff7f41;}.e{fill:#fff;}.f{filter:url(#bu);}.g{filter:url(#bs);}.h{filter:url(#bq);}.i{filter:url(#bo);}.j{filter:url(#bm);}.k{filter:url(#bk);}.l{filter:url(#bi);}.m{filter:url(#bg);}.n{filter:url(#be);}.o{filter:url(#bc);}.p{filter:url(#ba);}.q{filter:url(#ay);}.r{filter:url(#aw);}.s{filter:url(#au);}.t{filter:url(#as);}.u{filter:url(#aq);}.v{filter:url(#ao);}.w{filter:url(#am);}.x{filter:url(#ak);}.y{filter:url(#ai);}.z{filter:url(#ag);}.aa{filter:url(#ae);}.ab{filter:url(#ac);}.ac{filter:url(#aa);}.ad{filter:url(#y);}.ae{filter:url(#w);}.af{filter:url(#u);}.ag{filter:url(#s);}.ah{filter:url(#q);}.ai{filter:url(#o);}.aj{filter:url(#m);}.ak{filter:url(#k);}.al{filter:url(#i);}.am{filter:url(#g);}.an{filter:url(#e);}.ao{filter:url(#c);}.ap{filter:url(#a);}</style><filter id="a" x="60.7" y="58.496" width="56.067" height="25" filterUnits="userSpaceOnUse"><feOffset dx="4" dy="4" input="SourceAlpha"/><feGaussianBlur stdDeviation="4" result="b"/><feFlood flood-opacity="0.161"/><feComposite operator="in" in2="b"/><feComposite in="SourceGraphic"/></filter><filter id="c" x="3.279" y="46.73" width="84.127" height="115.958" filterUnits="userSpaceOnUse"><feOffset dx="4" dy="4" input="SourceAlpha"/><feGaussianBlur stdDeviation="4" result="d"/><feFlood flood-opacity="0.161"/><feComposite operator="in" in2="d"/><feComposite in="SourceGraphic"/></filter><filter id="e" x="90.274" y="46.73" width="82.742" height="111.593" filterUnits="userSpaceOnUse"><feOffset dx="4" dy="4" input="SourceAlpha"/><feGaussianBlur stdDeviation="4" result="f"/><feFlood flood-opacity="0.161"/><feComposite operator="in" in2="f"/><feComposite in="SourceGraphic"/></filter><filter id="g" x="0" y="130.757" width="70.76" height="67.203" filterUnits="userSpaceOnUse"><feOffset dx="4" dy="4" input="SourceAlpha"/><feGaussianBlur stdDeviation="4" result="h"/><feFlood flood-opacity="0.161"/><feComposite operator="in" in2="h"/><feComposite in="SourceGraphic"/></filter><filter id="i" x="19.179" y="129.523" width="124.906" height="69.421" filterUnits="userSpaceOnUse"><feOffset dx="4" dy="4" input="SourceAlpha"/><feGaussianBlur stdDeviation="4" result="j"/><feFlood flood-opacity="0.161"/><feComposite operator="in" in2="j"/><feComposite in="SourceGraphic"/></filter><filter id="k" x="28.474" y="129.387" width="60.593" height="33.621" filterUnits="userSpaceOnUse"><feOffset dx="4" dy="4" input="SourceAlpha"/><feGaussianBlur stdDeviation="4" result="l"/><feFlood flood-opacity="0.161"/><feComposite operator="in" in2="l"/><feComposite in="SourceGraphic"/></filter><filter id="m" x="58.625" y="143.792" width="100.571" height="45.901" filterUnits="userSpaceOnUse"><feOffset dx="4" dy="4" input="SourceAlpha"/><feGaussianBlur stdDeviation="4" result="n"/><feFlood flood-opacity="0.161"/><feComposite operator="in" in2="n"/><feComposite in="SourceGraphic"/></filter><filter id="o" x="119.406" y="128.484" width="58.611" height="63.904" filterUnits="userSpaceOnUse"><feOffset dx="4" dy="4" input="SourceAlpha"/><feGaussianBlur stdDeviation="4" result="p"/><feFlood flood-opacity="0.161"/><feComposite operator="in" in2="p"/><feComposite in="SourceGraphic"/></filter><filter id="q" x="30.182" y="115.373" width="25" height="39.17" filterUnits="userSpaceOnUse"><feOffset dx="4" dy="4" input="SourceAlpha"/><feGaussianBlur stdDeviation="4" result="r"/><feFlood flood-opacity="0.161"/><feComposite operator="in" in2="r"/><feComposite in="SourceGraphic"/></filter><filter id="s" x="123.123" y="115.373" width="25" height="39.17" filterUnits="userSpaceOnUse"><feOffset dx="4" dy="4" input="SourceAlpha"/><feGaussianBlur stdDeviation="4" result="t"/><feFlood flood-opacity="0.161"/><feComposite operator="in" in2="t"/><feComposite in="SourceGraphic"/></filter><filter id="u" x="30.182" y="164.692" width="117.941" height="68.515" filterUnits="userSpaceOnUse"><feOffset dx="4" dy="4" input="SourceAlpha"/><feGaussianBlur stdDeviation="4" result="v"/><feFlood flood-opacity="0.161"/><feComposite operator="in" in2="v"/><feComposite in="SourceGraphic"/></filter><filter id="w" x="67.983" y="230.331" width="42.324" height="272.971" filterUnits="userSpaceOnUse"><feOffset dx="4" dy="4" input="SourceAlpha"/><feGaussianBlur stdDeviation="4" result="x"/><feFlood flood-opacity="0.161"/><feComposite operator="in" in2="x"/><feComposite in="SourceGraphic"/></filter><filter id="y" x="30.182" y="208.207" width="117.941" height="295.118" filterUnits="userSpaceOnUse"><feOffset dx="4" dy="4" input="SourceAlpha"/><feGaussianBlur stdDeviation="4" result="z"/><feFlood flood-opacity="0.161"/><feComposite operator="in" in2="z"/><feComposite in="SourceGraphic"/></filter><filter id="aa" x="126.871" y="65.809" width="43.5" height="39.34" filterUnits="userSpaceOnUse"><feOffset dx="4" dy="4" input="SourceAlpha"/><feGaussianBlur stdDeviation="4" result="ab"/><feFlood flood-opacity="0.161"/><feComposite operator="in" in2="ab"/><feComposite in="SourceGraphic"/></filter><filter id="ac" x="88.863" y="93.9" width="53.184" height="44.979" filterUnits="userSpaceOnUse"><feOffset dx="4" dy="4" input="SourceAlpha"/><feGaussianBlur stdDeviation="4" result="ad"/><feFlood flood-opacity="0.161"/><feComposite operator="in" in2="ad"/><feComposite in="SourceGraphic"/></filter><filter id="ae" x="85.108" y="478.087" width="57.641" height="44.33" filterUnits="userSpaceOnUse"><feOffset dx="4" dy="4" input="SourceAlpha"/><feGaussianBlur stdDeviation="4" result="af"/><feFlood flood-opacity="0.161"/><feComposite operator="in" in2="af"/><feComposite in="SourceGraphic"/></filter><filter id="ag" x="35.556" y="478.087" width="57.626" height="44.33" filterUnits="userSpaceOnUse"><feOffset dx="4" dy="4" input="SourceAlpha"/><feGaussianBlur stdDeviation="4" result="ah"/><feFlood flood-opacity="0.161"/><feComposite operator="in" in2="ah"/><feComposite in="SourceGraphic"/></filter><filter id="ai" x="85.807" y="470.515" width="48.622" height="25" filterUnits="userSpaceOnUse"><feOffset dx="4" dy="4" input="SourceAlpha"/><feGaussianBlur stdDeviation="4" result="aj"/><feFlood flood-opacity="0.161"/><feComposite operator="in" in2="aj"/><feComposite in="SourceGraphic"/></filter><filter id="ak" x="44.501" y="470.515" width="48.607" height="25" filterUnits="userSpaceOnUse"><feOffset dx="4" dy="4" input="SourceAlpha"/><feGaussianBlur stdDeviation="4" result="al"/><feFlood flood-opacity="0.161"/><feComposite operator="in" in2="al"/><feComposite in="SourceGraphic"/></filter><filter id="am" x="111.281" y="215.866" width="35.315" height="47.947" filterUnits="userSpaceOnUse"><feOffset dx="4" dy="4" input="SourceAlpha"/><feGaussianBlur stdDeviation="4" result="an"/><feFlood flood-opacity="0.161"/><feComposite operator="in" in2="an"/><feComposite in="SourceGraphic"/></filter><filter id="ao" x="31.983" y="215.866" width="35.315" height="47.947" filterUnits="userSpaceOnUse"><feOffset dx="4" dy="4" input="SourceAlpha"/><feGaussianBlur stdDeviation="4" result="ap"/><feFlood flood-opacity="0.161"/><feComposite operator="in" in2="ap"/><feComposite in="SourceGraphic"/></filter><filter id="aq" x="30.563" y="215.871" width="117.18" height="25" filterUnits="userSpaceOnUse"><feOffset dx="4" dy="4" input="SourceAlpha"/><feGaussianBlur stdDeviation="4" result="ar"/><feFlood flood-opacity="0.161"/><feComposite operator="in" in2="ar"/><feComposite in="SourceGraphic"/></filter><filter id="as" x="97.595" y="426.598" width="27.04" height="68.94" filterUnits="userSpaceOnUse"><feOffset dx="4" dy="4" input="SourceAlpha"/><feGaussianBlur stdDeviation="4" result="at"/><feFlood flood-opacity="0.161"/><feComposite operator="in" in2="at"/><feComposite in="SourceGraphic"/></filter><filter id="au" x="53.41" y="426.598" width="27.04" height="68.94" filterUnits="userSpaceOnUse"><feOffset dx="4" dy="4" input="SourceAlpha"/><feGaussianBlur stdDeviation="4" result="av"/><feFlood flood-opacity="0.161"/><feComposite operator="in" in2="av"/><feComposite in="SourceGraphic"/></filter><filter id="aw" x="45.749" y="475.766" width="42.563" height="36.529" filterUnits="userSpaceOnUse"><feOffset dx="4" dy="4" input="SourceAlpha"/><feGaussianBlur stdDeviation="4" result="ax"/><feFlood flood-opacity="0.161"/><feComposite operator="in" in2="ax"/><feComposite in="SourceGraphic"/></filter><filter id="ay" x="90.74" y="475.766" width="42.557" height="36.313" filterUnits="userSpaceOnUse"><feOffset dx="4" dy="4" input="SourceAlpha"/><feGaussianBlur stdDeviation="4" result="az"/><feFlood flood-opacity="0.161"/><feComposite operator="in" in2="az"/><feComposite in="SourceGraphic"/></filter><filter id="ba" x="11.619" y="84.911" width="29.763" height="68.631" filterUnits="userSpaceOnUse"><feOffset dx="4" dy="4" input="SourceAlpha"/><feGaussianBlur stdDeviation="4" result="bb"/><feFlood flood-opacity="0.161"/><feComposite operator="in" in2="bb"/><feComposite in="SourceGraphic"/></filter><filter id="bc" x="59.694" y="21.776" width="39.474" height="39.475" filterUnits="userSpaceOnUse"><feOffset dx="4" dy="4" input="SourceAlpha"/><feGaussianBlur stdDeviation="4" result="bd"/><feFlood flood-opacity="0.161"/><feComposite operator="in" in2="bd"/><feComposite in="SourceGraphic"/></filter><filter id="be" x="73.092" y="23.312" width="31.452" height="26.493" filterUnits="userSpaceOnUse"><feOffset dx="4" dy="4" input="SourceAlpha"/><feGaussianBlur stdDeviation="4" result="bf"/><feFlood flood-opacity="0.161"/><feComposite operator="in" in2="bf"/><feComposite in="SourceGraphic"/></filter><filter id="bg" x="54.255" y="25.494" width="28.126" height="35.711" filterUnits="userSpaceOnUse"><feOffset dx="4" dy="4" input="SourceAlpha"/><feGaussianBlur stdDeviation="4" result="bh"/><feFlood flood-opacity="0.161"/><feComposite operator="in" in2="bh"/><feComposite in="SourceGraphic"/></filter><filter id="bi" x="95.284" y="25.494" width="28.126" height="35.772" filterUnits="userSpaceOnUse"><feOffset dx="4" dy="4" input="SourceAlpha"/><feGaussianBlur stdDeviation="4" result="bj"/><feFlood flood-opacity="0.161"/><feComposite operator="in" in2="bj"/><feComposite in="SourceGraphic"/></filter><filter id="bk" x="56.98" y="0" width="65.466" height="55.781" filterUnits="userSpaceOnUse"><feOffset dx="4" dy="4" input="SourceAlpha"/><feGaussianBlur stdDeviation="4" result="bl"/><feFlood flood-opacity="0.161"/><feComposite operator="in" in2="bl"/><feComposite in="SourceGraphic"/></filter><filter id="bm" x="57.881" y="17.5" width="42.952" height="61.684" filterUnits="userSpaceOnUse"><feOffset dx="4" dy="4" input="SourceAlpha"/><feGaussianBlur stdDeviation="4" result="bn"/><feFlood flood-opacity="0.161"/><feComposite operator="in" in2="bn"/><feComposite in="SourceGraphic"/></filter><filter id="bo" x="64.376" y="14.834" width="55.484" height="64.288" filterUnits="userSpaceOnUse"><feOffset dx="4" dy="4" input="SourceAlpha"/><feGaussianBlur stdDeviation="4" result="bp"/><feFlood flood-opacity="0.161"/><feComposite operator="in" in2="bp"/><feComposite in="SourceGraphic"/></filter><filter id="bq" x="90.613" y="23.712" width="27.312" height="31.08" filterUnits="userSpaceOnUse"><feOffset dx="4" dy="4" input="SourceAlpha"/><feGaussianBlur stdDeviation="4" result="br"/><feFlood flood-opacity="0.161"/><feComposite operator="in" in2="br"/><feComposite in="SourceGraphic"/></filter><filter id="bs" x="78.423" y="21.785" width="39.373" height="39.479" filterUnits="userSpaceOnUse"><feOffset dx="4" dy="4" input="SourceAlpha"/><feGaussianBlur stdDeviation="4" result="bt"/><feFlood flood-opacity="0.161"/><feComposite operator="in" in2="bt"/><feComposite in="SourceGraphic"/></filter><filter id="bu" x="62.254" y="13.944" width="26.422" height="27.639" filterUnits="userSpaceOnUse"><feOffset dx="4" dy="4" input="SourceAlpha"/><feGaussianBlur stdDeviation="4" result="bv"/><feFlood flood-opacity="0.161"/><feComposite operator="in" in2="bv"/><feComposite in="SourceGraphic"/></filter></defs><g class="a" transform="translate(8.545 8.5)"><g class="ap" transform="matrix(1, 0, 0, 1, -8.54, -8.5)"><line class="b" x2="31.067" transform="translate(69.2 67)"/></g><g class="ao" transform="matrix(1, 0, 0, 1, -8.54, -8.5)"><path class="c" d="M42,143.5l7.435-54.348A19,19,0,0,1,67.719,75H82.041A18.985,18.985,0,0,0,101.132,56.12V51.61" transform="translate(-30.23 3.12)"/></g><g class="an" transform="matrix(1, 0, 0, 1, -8.54, -8.5)"><path class="c" d="M156.846,139.143l-6.095-49.914a19,19,0,0,0-18.405-14.17H118.084A18.984,18.984,0,0,1,99.1,56.074V51.61" transform="translate(-0.33 3.12)"/></g><g class="am" transform="matrix(1, 0, 0, 1, -8.54, -8.5)"><path class="c" d="M62.384,148.084s-13.606,7.542-21.148-16.227,18.634-25.4,23.281-24.607c8.517,1.524,21.331,8.852,21.331,8.852" transform="translate(-31.34 32.18)"/></g><g class="al" transform="matrix(1, 0, 0, 1, -8.54, -8.5)"><path class="b" d="M143.994,120.485A197.181,197.181,0,0,0,89.4,142.608c-28.187,16.76-44.947,4.266-33.124-8.852,6.9-7.374,5.1-15.084,27.06-17.537s25.079-1.31,34.434-3.047,22.443-10.132,34.571-5.546C152.328,107.549,148.412,108.021,143.994,120.485Z" transform="translate(-24.76 31.74)"/></g><g class="ak" transform="matrix(1, 0, 0, 1, -8.54, -8.5)"><path class="c" d="M58.35,108.583s18.025-8.426,36.064,6.338" transform="translate(-21.66 31.7)"/></g><g class="aj" transform="matrix(1, 0, 0, 1, -8.54, -8.5)"><path class="c" d="M78,136.565h75.816s3.748-5.82-23.22-20.965" transform="translate(-11.37 36.63)"/></g><g class="ai" transform="matrix(1, 0, 0, 1, -8.54, -8.5)"><path class="c" d="M118,107.9c23.2-8.06,41.946,6.186,30.473,25.094s-21.94,8.807-21.94,8.807" transform="translate(9.57 31.39)"/></g><g class="ah" transform="matrix(1, 0, 0, 1, -8.54, -8.5)"><line class="b" y2="14.17" transform="translate(38.68 123.87)"/></g><g class="ag" transform="matrix(1, 0, 0, 1, -8.54, -8.5)"><line class="b" y2="14.17" transform="translate(131.62 123.87)"/></g><g class="af" transform="matrix(1, 0, 0, 1, -8.54, -8.5)"><path class="b" d="M59.66,138.578v34.3H152.6V129.36" transform="translate(-20.98 43.83)"/></g><g class="ae" transform="matrix(1, 0, 0, 1, -8.54, -8.5)"><path class="b" d="M101.794,420.411V172.44H84.47V420.411" transform="translate(-7.99 66.39)"/></g><g class="ad" transform="matrix(1, 0, 0, 1, -8.54, -8.5)"><path class="b" d="M73.251,428.014,59.66,157.92H152.6L139.011,428.014" transform="translate(-20.98 58.79)"/></g><g class="ac" transform="matrix(1, 0, 0, 1, -8.54, -8.5)"><path class="b" d="M141.51,78.691A19,19,0,0,0,123.12,64.46" transform="translate(12.25 9.85)"/></g><g class="ab" transform="matrix(1, 0, 0, 1, -8.54, -8.5)"><path class="d" d="M127.03,86.41l-2.849-2.849-2.864,2.849a9.049,9.049,0,0,0-10.163.366,6.932,6.932,0,1,0-6.369,9.66,7.079,7.079,0,0,0,2.788-.579A9.142,9.142,0,1,0,124.2,89.32Zm-22.245,5.805a2.712,2.712,0,1,1,2.7-2.727v.03A2.712,2.712,0,0,1,104.785,92.215Zm11.732,7.1a5.18,5.18,0,1,1,5.18-5.18,5.18,5.18,0,0,1-5.18,5.18Z" transform="translate(-0.98 19.33)"/></g><g class="aa" transform="matrix(1, 0, 0, 1, -8.54, -8.5)"><path class="b" d="M95.84,335.18,120.8,353.342a4.571,4.571,0,0,0,6.643-6.095l-7.374-12.021" transform="translate(-2.03 151.61)"/></g><g class="z" transform="matrix(1, 0, 0, 1, -8.54, -8.5)"><path class="b" d="M95.578,335.18,70.636,353.342a4.571,4.571,0,0,1-6.643-6.095l7.374-12.021" transform="translate(-19.1 151.61)"/></g><g class="y" transform="matrix(1, 0, 0, 1, -8.54, -8.5)"><line class="e" x2="24.622" transform="translate(93.81 479.02)"/></g><g class="x" transform="matrix(1, 0, 0, 1, -8.54, -8.5)"><line class="e" x2="24.607" transform="translate(52.5 479.02)"/></g><g class="w" transform="matrix(1, 0, 0, 1, -8.54, -8.5)"><path class="b" d="M113.487,163s-4.114,22.534,9.69,22.854" transform="translate(6.91 61.45)"/></g><g class="v" transform="matrix(1, 0, 0, 1, -8.54, -8.5)"><path class="b" d="M70.54,163s4.114,22.534-9.69,22.854" transform="translate(-20.36 61.45)"/></g><g class="u" transform="matrix(1, 0, 0, 1, -8.54, -8.5)"><line class="b" x2="92.18" transform="translate(39.06 224.37)"/></g><g class="t" transform="matrix(1, 0, 0, 1, -8.54, -8.5)"><line class="b" x1="1.996" y2="43.896" transform="translate(106.12 435.12)"/></g><g class="s" transform="matrix(1, 0, 0, 1, -8.54, -8.5)"><line class="b" x2="1.996" y2="43.896" transform="translate(61.93 435.12)"/></g><g class="r" transform="matrix(1, 0, 0, 1, -8.54, -8.5)"><path class="b" d="M87.234,333.66,74.725,344.082a3.048,3.048,0,0,1-4.289-.414,3.083,3.083,0,0,1-.4-.637c-.4-1.1-.107-2.484,2.026-4.1" transform="translate(-15.63 150.81)"/></g><g class="q" transform="matrix(1, 0, 0, 1, -8.54, -8.5)"><path class="b" d="M99.54,333.66l12.509,10.422a3.049,3.049,0,0,0,4.678-1.051c.411-1.1.122-2.484-2.011-4.1" transform="translate(-0.1 150.81)"/></g><g class="p" transform="matrix(1, 0, 0, 1, -8.54, -8.5)"><line class="b" x1="4.662" y2="43.53" transform="translate(20.17 93.46)"/></g><g class="o" transform="matrix(1, 0, 0, 1, -8.54, -8.5)"><ellipse class="c" cx="7.237" cy="7.237" rx="7.237" ry="7.237" transform="translate(68.19 30.28)"/></g><g class="n" transform="matrix(1, 0, 0, 1, -8.54, -8.5)"><path class="c" d="M87.7,38.09l.152-.122a4.907,4.907,0,0,1,6.536,0l.122.107" transform="translate(-6.3 -4.68)"/></g><g class="m" transform="matrix(1, 0, 0, 1, -8.54, -8.5)"><path class="c" d="M79.086,38c-2,0-3.626,2.392-3.626,5.348s1.63,5.363,3.626,5.363" transform="translate(-12.7 -4.01)"/></g><g class="l" transform="matrix(1, 0, 0, 1, -8.54, -8.5)"><path class="c" d="M102.06,48.772c2.011,0,3.626-2.407,3.626-5.363S104.071,38,102.06,38" transform="translate(1.22 -4.01)"/></g><g class="k" transform="matrix(1, 0, 0, 1, -8.54, -8.5)"><path class="c" d="M115.429,36.1a10.668,10.668,0,0,0,2.24-7.481c-.594-4.068-3.2-7.131-8.5-7.344a31.779,31.779,0,0,0-10.193,1.524,39.955,39.955,0,0,0-8.791,3.55l-.9-3.961S77.826,26.01,80.508,33.049c0,0-5.363,1.676-2.316,16.1a1.664,1.664,0,0,0,.229-.2c.808-.777,3.5-3.885,4.022-10.772a30.767,30.767,0,0,0,0-3.139s.625.366,1.706.884c4.007,1.95,14.627,6.247,25.9,3.6a39.324,39.324,0,0,0,.518,5.211,7.222,7.222,0,0,1,2.484,5.424,7.575,7.575,0,0,1-.122,1.188,4.783,4.783,0,0,0,.67.7s.472-1.371,1.021-3.306C116.024,44.385,117.776,36.873,115.429,36.1Z" transform="translate(-11.76 -12.77)"/></g><g class="j" transform="matrix(1, 0, 0, 1, -8.54, -8.5)"><path class="c" d="M82.137,32.45c-.518,6.933-3.215,9.98-4.053,10.772A26.8,26.8,0,0,0,77.84,47c0,12.479,8.258,22.6,18.451,22.6" transform="translate(-11.46 -6.91)"/></g><g class="i" transform="matrix(1, 0, 0, 1, -8.54, -8.5)"><path class="c" d="M94.231,70.31c10.193,0,18.451-10.117,18.451-22.6a27.6,27.6,0,0,0-.289-3.931c-.549,1.935-1.021,3.306-1.021,3.306a4.782,4.782,0,0,1-.67-.7,7.254,7.254,0,1,1-2.362-6.613,39.319,39.319,0,0,1-.518-5.211c-11.336,2.651-21.956-1.646-25.9-3.6" transform="translate(-9.32 -7.69)"/></g><g class="h" transform="matrix(1, 0, 0, 1, -8.54, -8.5)"><path class="c" d="M101.572,43.363a7.571,7.571,0,0,0,.122-1.188A7.222,7.222,0,0,0,99.21,36.75" transform="translate(-0.27 -4.66)"/></g><g class="g" transform="matrix(1, 0, 0, 1, -8.54, -8.5)"><path class="c" d="M103.34,37.369a7.237,7.237,0,1,0,2.362,6.613" transform="translate(-4.4 -5.28)"/></g><g class="f" transform="matrix(1, 0, 0, 1, -8.54, -8.5)"><path class="c" d="M82.416,31.3c-1.082-.518-1.706-.884-1.706-.884v3.139" transform="translate(-9.96 -7.98)"/></g></g></svg>