<svg xmlns="http://www.w3.org/2000/svg" xmlns:xlink="http://www.w3.org/1999/xlink" width="1920" height="960" viewBox="0 0 1920 960"><defs><style>.a{fill:#fff;stroke:#707070;}.b{opacity:0.293;clip-path:url(#a);}.c{opacity:0.32;}.d{fill:none;stroke:#c44433;stroke-linecap:round;stroke-linejoin:bevel;stroke-width:1.559px;}.e,.f{fill:#ff7f41;}.f{stroke:#fff;stroke-miterlimit:10;}.g{filter:url(#b);}</style><clipPath id="a"><rect class="a" width="1920" height="960" transform="translate(0 120)"/></clipPath><filter id="b" x="640.93" y="206.134" width="46.922" height="46.922" filterUnits="userSpaceOnUse"><feOffset dx="4" dy="4" input="SourceAlpha"/><feGaussianBlur stdDeviation="4" result="c"/><feFlood flood-opacity="0.302"/><feComposite operator="in" in2="c"/><feComposite in="SourceGraphic"/></filter></defs><g class="b" transform="translate(1920 1080) rotate(180)"><g class="c" transform="translate(-187.954 335.514) rotate(-3)"><g transform="translate(91.137 239.119)"><path class="d" d="M262.8,343.51l-47.122-58.9L91.137,303.119Z" transform="translate(-91.137 -193.167)"/><path class="d" d="M323.068,323.315,153.09,284.607l47.123,58.9Z" transform="translate(-28.552 -193.167)"/><path class="d" d="M333.046,430.084,299.387,303.863l-122.855,20.2Z" transform="translate(-4.871 -173.715)"/><path class="d" d="M191.679,507.448l141.368-87.513L176.532,313.909Z" transform="translate(-4.871 -163.566)"/><path class="d" d="M95.323,462.009l163.246-148.1,15.147,193.539Z" transform="translate(-86.908 -163.566)"/><path class="d" d="M91.137,534c18.512-5.048,186.807-100.976,186.807-100.976L99.552,387.583Z" transform="translate(-91.137 -89.141)"/><path class="d" d="M277.944,682.826,91.137,511.165,277.944,410.188Z" transform="translate(-91.137 -66.306)"/><path class="d" d="M338.9,519.58,184.067,410.188V682.826Z" transform="translate(2.74 -66.306)"/><path class="d" d="M352.362,661.511,184.067,627.852,338.9,464.607Z" transform="translate(2.74 -11.332)"/><path class="d" d="M447.9,449.537,261.09,479.83l13.464,196.9Z" transform="translate(80.548 -26.556)"/><path class="d" d="M471.425,578.282,267.788,676.735l173.344-227.2Z" transform="translate(87.314 -26.556)"/><path class="d" d="M522.315,486.562,354.02,449.537l30.293,128.746Z" transform="translate(174.426 -26.556)"/><path class="d" d="M554.214,526.858l-47.123-58.9-138,91.721Z" transform="translate(189.649 -7.949)"/><path class="d" d="M493.7,405.165l-139.685,89.2,168.295,37.025Z" transform="translate(174.426 -71.38)"/><path class="d" d="M583.108,511.19l-159.6-106.026,28.61,126.221Z" transform="translate(244.622 -71.38)"/><path class="d" d="M613.048,513.166l-44.318-55.257-130.99,20.2Z" transform="translate(259 -18.098)"/><path class="d" d="M426.053,403.678l-158.2,159.88-13.464-196.9Z" transform="translate(73.783 -110.284)"/><path class="d" d="M447.9,514.659l-28.61-129.587-158.2,159.88Z" transform="translate(80.548 -91.678)"/><path class="d" d="M508.083,425.463,339.788,385.072,368.4,514.659Z" transform="translate(160.048 -91.678)"/><path class="d" d="M540.059,364.979,508.083,445.76,339.788,405.37Z" transform="translate(160.048 -111.976)"/><path class="d" d="M324.578,321.863l30.574,127.063,200.271-40.391Z" transform="translate(144.684 -155.531)"/><path class="d" d="M254.393,411.9,395.48,321.863l30.574,127.063Z" transform="translate(73.783 -155.531)"/><path class="d" d="M381.634,258.1,412.394,386.28,237.648,350.1Z" transform="translate(56.868 -219.948)"/><path class="d" d="M224.439,239.119l26.553,130.148,143.986-92Z" transform="translate(43.524 -239.119)"/><path class="d" d="M153.09,330.559l143.425-91.44,26.553,130.148Z" transform="translate(-28.552 -239.119)"/><path class="d" d="M340.037,386.28l123.7-21.037L309.276,258.1Z" transform="translate(129.225 -219.948)"/><path class="d" d="M493.261,419.106,617.8,398.35,386.113,311.4Z" transform="translate(206.846 -166.103)"/><path class="d" d="M624.9,402,455.484,364.979,423.508,445.76Z" transform="translate(244.622 -111.976)"/><path class="d" d="M501.369,354.653l44.879,57.781,131.831-54.976Z" transform="translate(323.276 -122.406)"/><path class="d" d="M623.549,470.489l-99.855-59.464,131.831-54.976Z" transform="translate(345.829 -120.997)"/><path class="d" d="M502.9,533.18l141.648-90.318L544.7,383.4Z" transform="translate(324.827 -93.369)"/><path class="d" d="M688.869,468.516l-44.318-55.537L502.9,503.3Z" transform="translate(324.827 -63.486)"/><path class="d" d="M696.891,572.157,524.95,530.644,666.6,440.607Z" transform="translate(347.098 -35.577)"/><path class="d" d="M461.183,509.239,589.367,485.4l48.665,63.672Z" transform="translate(282.68 9.67)"/><path class="d" d="M672.435,506.048,703.85,633.672,549.159,528.207Z" transform="translate(371.554 30.532)"/><path class="d" d="M595.415,440.607,751.368,549.437l-125.66,22.72Z" transform="translate(418.281 -35.577)"/><path class="d" d="M573.369,430.175l186.807-34.22-142.49,89.757Z" transform="translate(396.01 -80.683)"/><path class="d" d="M605.344,356.049l107.709,21.317L573.369,470.489Z" transform="translate(396.01 -120.997)"/><path class="d" d="M760.176,425.556l-47.123-58.9L573.369,459.776Z" transform="translate(396.01 -110.284)"/><path class="d" d="M845.933,313.909,642.857,419.935l47.123,58.9Z" transform="translate(466.206 -163.566)"/><path class="d" d="M837.959,518.387,666.3,478.838,822.252,313.909Z" transform="translate(489.887 -163.566)"/><path class="d" d="M914.419,356.824,743.88,313.909l15.708,204.478Z" transform="translate(568.259 -163.566)"/><path class="d" d="M922.233,530.2,906.525,335.258,751.694,496.821Z" transform="translate(576.153 -141.999)"/><path class="d" d="M844.657,612.535,673,574.668l158.2-159.039Z" transform="translate(496.653 -60.808)"/><path class="d" d="M666.3,395.955l13.464,198.588L837.959,435.5Z" transform="translate(489.887 -80.683)"/><path class="d" d="M610.485,517.466,783.267,554.21l-47.123-59.464Z" transform="translate(433.504 19.114)"/><path class="d" d="M641.9,633.672l141.368-90.879L610.485,506.048Z" transform="translate(433.504 30.532)"/><path class="d" d="M792.725,651.109l-166.612-35.9L767.48,524.327Z" transform="translate(449.291 48.997)"/><path class="d" d="M880.1,668.406l-26.927-125.66L709,632.5Z" transform="translate(533.02 67.603)"/><path class="d" d="M696.438,535.181c5.61,0,124.54-21.6,124.54-21.6l44.877,58.623Z" transform="translate(520.333 38.143)"/><path class="d" d="M962.589,497.309l-47.122-65.074L758.392,595.761Z" transform="translate(582.918 -44.034)"/><path class="d" d="M952.378,661.511l-171.661-39.83L940.036,464.607Z" transform="translate(605.471 -11.332)"/><path class="d" d="M828.717,335.258,985.792,440.442,844.425,530.2Z" transform="translate(653.961 -141.999)"/><path class="d" d="M1008.191,518.854c-4.487-1.124-171.66-41.514-171.66-41.514L977.9,387.583Z" transform="translate(661.854 -89.141)"/><path class="d" d="M1013.682,581.912c0-5.61-29.172-129.026-29.172-129.026L859.973,476.445Z" transform="translate(685.535 -23.172)"/><path class="d" d="M872.314,661.511l141.368-91.44L859.973,464.607Z" transform="translate(685.535 -11.332)"/><path class="d" d="M938.846,784.148V562.56L794.112,648.39Z" transform="translate(619.003 87.619)"/><path class="d" d="M1020.943,665.219c-4.487-2.244-154.831-102.659-154.831-102.659V784.147Z" transform="translate(691.737 87.619)"/><path class="d" d="M1130.5,665.086l-29.171-131.27-158.2,160.441Z" transform="translate(769.545 58.582)"/><path class="d" d="M936.438,517.072l13.464,194.1,158.2-160.441Z" transform="translate(762.779 41.667)"/><path class="d" d="M1108.1,402.653l-171.661,230L1108.1,666.315Z" transform="translate(762.779 -73.917)"/><path class="d" d="M1177.786,513.126,1021.833,407.661l133.262-9.966Z" transform="translate(849.045 -78.925)"/><path class="d" d="M1052.151,344.607,906.856,431l231.125,30.293Z" transform="translate(732.896 -132.555)"/><path class="d" d="M1142.942,380.51l-163.807-35.9,85.831,116.684Z" transform="translate(805.912 -132.555)"/><path class="d" d="M267.788,612.036l244.869,49.928-41.232-148.38Z" transform="translate(87.314 38.143)"/><path class="d" d="M410.322,678.455l143.892-181.2L369.09,530.075Z" transform="translate(189.649 21.652)"/><path class="d" d="M710.343,537.087l-176.85-39.83L389.6,678.455Z" transform="translate(210.37 21.652)"/><path class="d" d="M719.97,622.536,533.2,645.775l32.077-128.7Z" transform="translate(355.434 41.667)"/><path class="d" d="M598.949,645.774c-7.48-2.991-130.831-56.9-130.831-56.9l162.908-71.8Z" transform="translate(289.686 41.668)"/><path class="d" d="M389.6,622.356l157.833-69.566,130.832,56.9Z" transform="translate(210.37 77.751)"/><path class="d" d="M461.183,497.258s9.43,113.62,13.941,111.632l162.908-71.8Z" transform="translate(282.681 21.652)"/><path class="d" d="M866.112,747.217l342.2-148.1-187.368,29.171Z" transform="translate(691.737 124.55)"/><path class="d" d="M709,587.4l315.833,171.661L880.1,623.3Z" transform="translate(533.02 112.71)"/><path class="d" d="M1051,673.96l-29.171-131.27,155.953-17.66Z" transform="translate(849.045 49.707)"/><path class="d" d="M1177.786,508.118V648.655l-155.953-246Z" transform="translate(849.045 -73.917)"/><path class="d" d="M1021.833,666.315l155.953-17.66-155.953-246Z" transform="translate(849.045 -73.917)"/><path class="d" d="M1099.81,362.467l55.285,70.816-133.262,9.966Z" transform="translate(849.045 -114.513)"/><path class="d" d="M1137.981,417.876,937.149,518.853l-30.293-131.27Z" transform="translate(732.896 -89.141)"/><path class="d" d="M91.137,293.816l8.415,188.49L262.8,334.207Z" transform="translate(-91.137 -183.864)"/></g><rect class="e" width="15.914" height="15.914" transform="translate(1451.72 881.937) rotate(45)"/><rect class="e" width="15.914" height="15.914" transform="translate(667.114 730.777) rotate(45)"/><rect class="e" width="15.914" height="15.914" transform="translate(1218.828 658.533) rotate(45)"/><rect class="e" width="18.822" height="18.822" transform="translate(1962.015 554.545) rotate(45)"/><g class="g" transform="matrix(-1, -0.05, 0.05, -1, 2066.1, 853.79)"><rect class="e" width="21.81" height="21.81" transform="translate(650.07 237.06) rotate(-93)"/></g><rect class="e" width="5.984" height="5.984" transform="translate(907.967 696.133) rotate(90)"/><rect class="e" width="5.984" height="5.984" transform="translate(897.29 696.133) rotate(90)"/><rect class="e" width="5.984" height="5.984" transform="translate(886.641 696.133) rotate(90)"/><rect class="e" width="11.001" height="11.001" transform="translate(1892.576 454.678) rotate(90)"/><circle class="f" cx="8.43" cy="8.43" r="8.43" transform="translate(1666.922 926.561)"/><circle class="f" cx="8.43" cy="8.43" r="8.43" transform="translate(1652.352 734.186)"/><circle class="f" cx="8.43" cy="8.43" r="8.43" transform="translate(649.876 903.307)"/><circle class="f" cx="8.43" cy="8.43" r="8.43" transform="translate(626.299 879.891)"/><circle class="f" cx="8.43" cy="8.43" r="8.43" transform="translate(522.011 471.901)"/><circle class="e" cx="4.515" cy="4.515" r="4.515" transform="translate(1051.486 610.432)"/><circle class="e" cx="9.41" cy="9.41" r="9.41" transform="translate(749.858 563.494)"/><circle class="e" cx="9.41" cy="9.41" r="9.41" transform="translate(253.388 380.052)"/><circle class="e" cx="9.41" cy="9.41" r="9.41" transform="translate(268.535 572.903)"/></g></g></svg>