<svg xmlns="http://www.w3.org/2000/svg" xmlns:xlink="http://www.w3.org/1999/xlink" width="88.217" height="88.21" viewBox="0 0 88.217 88.21"><defs><style>.a{fill:#ff7f41;}.b{fill:#fff;}.c{filter:url(#a);}</style><filter id="a" x="0" y="0" width="88.217" height="88.21" filterUnits="userSpaceOnUse"><feOffset dx="4" dy="4" input="SourceAlpha"/><feGaussianBlur stdDeviation="4" result="b"/><feFlood flood-color="#050506" flood-opacity="0.18"/><feComposite operator="in" in2="b"/><feComposite in="SourceGraphic"/></filter></defs><g transform="translate(0.742 0.738)"><g transform="translate(7.258 7.262)"><g class="c" transform="matrix(1, 0, 0, 1, -8, -8)"><path class="a" d="M71.475,39.367A32.108,32.108,0,1,1,39.363,7.262,32.106,32.106,0,0,1,71.475,39.367Z" transform="translate(0.74 0.74)"/></g></g><g transform="translate(19.331 16.154)"><g transform="translate(30.879 12.471)"><path class="b" d="M79.864,40.2l-5.306,5.3L73.395,46.66c0-.007-.007-.013-.007-.026l.247-.247,6.2-6.2-.019-.019.019-.019A.2.2,0,0,0,79.864,40.2Z" transform="translate(-73.388 -40.152)"/></g><path class="b" d="M64.74,36.384a20.3,20.3,0,0,1,1.409,11.133c-.007,0-.013-.006-.019-.006a20.149,20.149,0,0,1-4.54,9.983c-.006.006-.006.013-.013.019-.162.188-.331.383-.507.565-.032.039-.058.071-.091.1q-.253.273-.526.546c-.162.162-.325.318-.487.474-.026.026-.058.045-.084.071a20.13,20.13,0,0,1-9.165,4.806v.058a20.431,20.431,0,0,1-8.957.058v-.045a20.245,20.245,0,0,1-8.853-4.378l-.175-.156c-.091-.078-.182-.162-.273-.24l-.273-.253a1.168,1.168,0,0,0-.13-.123l-.273-.273a20.288,20.288,0,0,1,7.158-33.307h.006c.455-.169.909-.325,1.37-.461.058-.019.117-.032.175-.052.227-.065.455-.123.682-.182.1-.026.2-.052.3-.071l.513-.117.416-.078c.1-.019.195-.039.3-.052q.312-.058.624-.1c.078-.013.156-.019.234-.032l.688-.078c.045,0,.1-.006.143-.006a20.237,20.237,0,0,1,12.425,2.981l6.229-6.222,1.689,1.689,3.085,3.085,1.526,1.52-6.2,6.2.019.019-6.2,6.2-.247.247-9.178,9.178L45.209,46.75l-4.378-4.215.234-.234,2.851-2.851,3.611,3.481,6.709-6.709a11.515,11.515,0,0,0-7.43-3.325v2.072a.536.536,0,0,1-.539.533h-.149a.535.535,0,0,1-.533-.533V32.883a11.5,11.5,0,0,0-7.106,2.871l1.526,1.526a.533.533,0,0,1,0,.753l-.1.1a.533.533,0,0,1-.753,0l-1.533-1.533a11.49,11.49,0,0,0-3,7.112h2.221a.536.536,0,0,1,.533.539V44.4a.536.536,0,0,1-.533.539H34.609a11.522,11.522,0,0,0,2.949,7.171l1.591-1.591a.533.533,0,0,1,.753,0l.1.1a.533.533,0,0,1,0,.753L38.422,52.96A11.446,11.446,0,0,0,45.586,55.9V53.687a.535.535,0,0,1,.533-.533h.149a.536.536,0,0,1,.539.533v2.2a11.458,11.458,0,0,0,7.086-3l-1.507-1.513a.522.522,0,0,1,0-.753l.1-.1a.533.533,0,0,1,.753,0l1.507,1.507a11.487,11.487,0,0,0,2.851-8.5Z" transform="translate(-25.846 -20.952)"/></g></g></svg>