<svg xmlns="http://www.w3.org/2000/svg" xmlns:xlink="http://www.w3.org/1999/xlink" width="92" height="92" viewBox="0 0 92 92"><defs><style>.a{fill:#ff7f41;}.b{fill:#fff;}.c{filter:url(#a);}</style><filter id="a" x="0" y="0" width="92" height="92" filterUnits="userSpaceOnUse"><feOffset dx="4" dy="4" input="SourceAlpha"/><feGaussianBlur stdDeviation="3" result="b"/><feFlood flood-color="#050506" flood-opacity="0.212"/><feComposite operator="in" in2="b"/><feComposite in="SourceGraphic"/></filter></defs><g transform="translate(-2.259 -2.259)"><g transform="translate(7.259 7.259)"><g class="c" transform="matrix(1, 0, 0, 1, -5, -5)"><circle class="a" cx="37" cy="37" r="37" transform="translate(5 5)"/></g></g><g transform="translate(20.657 22.651)"><path class="b" d="M84.746,42.364A14.541,14.541,0,0,0,70.294,27.823V34a8.361,8.361,0,0,1,8.28,8.36Z" transform="translate(-36.512 -27.823)"/><path class="b" d="M25.16,42.364A14.542,14.542,0,0,1,39.612,27.823V34a8.361,8.361,0,0,0-8.28,8.36Z" transform="translate(-25.16 -27.823)"/><rect class="b" width="20.59" height="6.199" transform="translate(14.152 0)"/><g transform="translate(0 25.273)"><path class="b" d="M25.16,61.589A14.542,14.542,0,0,0,39.612,76.13V69.949a8.361,8.361,0,0,1-8.28-8.36Z" transform="translate(-25.16 -61.589)"/><path class="b" d="M84.746,61.589A14.541,14.541,0,0,1,70.294,76.13V69.949a8.361,8.361,0,0,0,8.28-8.36Z" transform="translate(-36.512 -61.589)"/><rect class="b" width="20.59" height="6.199" transform="translate(34.081 14.541) rotate(180)"/></g><rect class="b" width="6.16" height="11.609" transform="translate(42.074 14.326)"/><rect class="b" width="6.16" height="11.609" transform="translate(0 14.326)"/></g><rect class="b" width="6.716" height="6.716" transform="translate(41.344 66.081) rotate(-90)"/><rect class="b" width="26.507" height="2.495" rx="1.248" transform="translate(57.486 68.134) rotate(180)"/><circle class="a" cx="1.131" cy="1.131" r="1.131" transform="translate(43.313 58.234)"/><g transform="translate(30.358 36.465)"><path class="b" d="M60.475,46.28,55.732,58.913H52.823L57.565,46.28Z" transform="translate(-41.819 -46.28)"/><path class="b" d="M66.208,48.459h4.48l4.272,4.648-4.272,4.606h-4.48l4.271-4.606Z" transform="translate(-45.186 -46.828)"/><path class="b" d="M42.6,53.107l4.272,4.606H42.393l-4.272-4.606,4.272-4.648h4.481Z" transform="translate(-38.121 -46.828)"/></g></g></svg>