<svg xmlns="http://www.w3.org/2000/svg" xmlns:xlink="http://www.w3.org/1999/xlink" width="107" height="107" viewBox="0 0 107 107"><defs><style>.a,.e{fill:#ff7f41;}.b{fill:#fff;}.c{fill:none;stroke-miterlimit:10;}.d,.e{stroke:none;}.f{filter:url(#a);}</style><filter id="a" x="0" y="0" width="107" height="107" filterUnits="userSpaceOnUse"><feOffset dx="4" dy="4" input="SourceAlpha"/><feGaussianBlur stdDeviation="4" result="b"/><feFlood flood-color="#050506" flood-opacity="0.18"/><feComposite operator="in" in2="b"/><feComposite in="SourceGraphic"/></filter></defs><g transform="translate(-1339.999 -2831)"><g transform="translate(1347.999 2839)"><g class="f" transform="matrix(1, 0, 0, 1, -8, -8)"><circle class="a" cx="41.5" cy="41.5" r="41.5" transform="translate(8 8)"/></g><g transform="translate(23.869 8.361)"><g transform="translate(2.787 24.865)"><path class="b" d="M65.139,46.838,72.361,79.65,69.51,84.577l.055,4.735-1.321-4.735-.551.055L60.7,48.954Z" transform="translate(-42.492 -46.838)"/><path class="b" d="M46.234,46.838,39.011,79.65l2.852,4.928-.055,4.735,1.321-4.735.551.055,6.993-35.678Z" transform="translate(-39.011 -46.838)"/></g><path class="b" d="M44.36,63.221l.982-4.234a4.942,4.942,0,0,0-2.059,8.878l.983-4.239A1.917,1.917,0,0,1,44.36,63.221Z" transform="translate(-36.581 -23.923)"/><path class="b" d="M46.563,61.932a1.923,1.923,0,0,1,2.116,1.65l.918-3.792a4.926,4.926,0,0,0-3.366-.858c-.1.011-.2.026-.292.042l-.982,4.234A1.923,1.923,0,0,1,46.563,61.932Z" transform="translate(-37.179 -23.909)"/><path class="b" d="M46.779,66.658a1.925,1.925,0,0,1-2.121-2.146l-.983,4.239a4.925,4.925,0,0,0,3.435.906c.039,0,.076-.011.115-.016l.918-3.791A1.923,1.923,0,0,1,46.779,66.658Z" transform="translate(-36.973 -24.809)"/><rect class="b" width="35.261" height="1.889" rx="0.945" transform="translate(0 38.277)"/><rect class="b" width="1.356" height="5.785" transform="translate(17.042 36.33)"/><g transform="translate(4.522)"><g class="c" transform="translate(-43.918 -23.284)"><path class="d" d="M58.927,55.008l-.154.02Z"/><path class="e" d="M 58.9266357421875 55.00800704956055 C 58.87541580200195 55.01471710205078 58.82421493530273 55.02143859863281 58.77299499511719 55.02814865112305 C 58.82421493530273 55.02143859863281 58.87541580200195 55.01471710205078 58.9266357421875 55.00800704956055 M 58.66684722900391 53.02494812011719 L 59.18642425537109 56.99106597900391 L 59.10984420776367 57.0010986328125 L 59.03278350830078 57.01120758056641 L 58.51320648193359 53.04508972167969 L 58.58978652954102 53.03505706787109 L 58.66684722900391 53.02494812011719 Z"/></g><g class="c" transform="translate(-43.815 -23.297)"><path class="d" d="M58.224,55.09l-.094.008Z"/><path class="e" d="M 58.22403717041016 55.09000015258789 C 58.19296646118164 55.09252166748047 58.16106796264648 55.09503936767578 58.12999725341797 55.09756088256836 C 58.16106796264648 55.09503936767578 58.19296646118164 55.09252166748047 58.22403717041016 55.09000015258789 M 58.06235885620117 53.09654998779297 L 58.38571548461914 57.08345031738281 L 58.33658599853516 57.08740234375 L 58.29167556762695 57.09101104736328 L 57.96831893920898 53.10411071777344 L 58.01744842529297 53.10015869140625 L 58.06235885620117 53.09654998779297 Z"/></g><g class="c" transform="translate(-41.878 -18.935)"><path class="d" d="M46.06,27.957l.052-.048Z"/><path class="e" d="M 46.05999755859375 27.95685768127441 L 46.112060546875 27.90899848937988 L 46.05999755859375 27.95685768127441 M 47.41357040405273 29.42921829223633 L 44.70642852783203 26.48449897766113 L 44.75848770141602 26.43663787841797 L 47.46562957763672 29.38135719299316 L 47.41357040405273 29.42921829223633 Z"/></g><g class="c" transform="translate(-41.676 -19.154)"><path class="d" d="M44.8,29.287l.011-.013Z"/><path class="e" d="M 44.79899978637695 29.28743934631348 L 44.80991744995117 29.27400016784668 L 44.79899978637695 29.28743934631348 M 46.35122680664062 30.54862976074219 L 43.24676895141602 28.02624893188477 L 43.2576904296875 28.01280975341797 L 46.36214828491211 30.53519058227539 L 46.35122680664062 30.54862976074219 Z"/></g><g class="c" transform="translate(-41.74 -19.07)"><path class="d" d="M45.2,28.821l.06-.066Z"/><path class="e" d="M 45.20200347900391 28.82132148742676 C 45.22215270996094 28.79865264892578 45.24229431152344 28.77682304382324 45.26244354248047 28.75500297546387 C 45.24229431152344 28.77682304382324 45.22215270996094 28.79865264892578 45.20200347900391 28.82132148742676 M 46.69686508178711 30.1500129699707 L 43.7071418762207 27.49263191223145 C 43.73583221435547 27.46036148071289 43.76443481445312 27.42920303344727 43.79312515258789 27.39813232421875 L 46.73176193237305 30.11187171936035 C 46.72015380859375 30.12444305419922 46.70847320556641 30.13694190979004 46.69686508178711 30.1500129699707 Z"/></g><g class="c" transform="translate(-44.114 -23.241)"><path class="d" d="M60.325,54.741c-.11.026-.221.05-.332.073C60.1,54.791,60.215,54.767,60.325,54.741Z"/><path class="e" d="M 60.32460403442383 54.74100494384766 C 60.21463394165039 54.76702117919922 60.10381698608398 54.79137420654297 59.99300765991211 54.81404113769531 C 60.10381698608398 54.79137420654297 60.21463394165039 54.76702117919922 60.32460403442383 54.74100494384766 M 59.86410522460938 52.79474258422852 L 60.78510665893555 56.68726348876953 C 60.65765762329102 56.71742248535156 60.52602767944336 56.74642181396484 60.39387512207031 56.77345275878906 L 59.59213638305664 52.85463333129883 C 59.68458557128906 52.83571243286133 59.77608489990234 52.8155632019043 59.86410522460938 52.79474258422852 Z"/></g><g class="c" transform="translate(-44.216 -23.209)"><path class="d" d="M61.066,54.542q-.22.064-.442.119Q60.846,54.606,61.066,54.542Z"/><path class="e" d="M 61.0664176940918 54.5420036315918 C 60.91950607299805 54.58480453491211 60.77174758911133 54.62426376342773 60.62399673461914 54.66120529174805 C 60.77174758911133 54.62426376342773 60.91950607299805 54.58480453491211 61.0664176940918 54.5420036315918 M 60.50700759887695 52.62183380126953 L 61.62582778930664 56.46217346191406 C 61.46110534667969 56.51016616821289 61.29207611083984 56.55573272705078 61.10909652709961 56.60148620605469 L 60.13889694213867 52.72092437744141 C 60.2716064453125 52.687744140625 60.39201736450195 52.65533447265625 60.50700759887695 52.62183380126953 Z"/></g><g class="c" transform="translate(-44.026 -23.265)"><path class="d" d="M59.633,54.892l-.193.035Z"/><path class="e" d="M 59.63307952880859 54.89199829101562 C 59.56843948364258 54.90375137329102 59.50464248657227 54.91550827026367 59.44000244140625 54.92726135253906 C 59.50464248657227 54.91550827026367 59.56843948364258 54.90375137329102 59.63307952880859 54.89199829101562 M 59.275390625 52.92425155639648 L 59.99077224731445 56.85974884033203 L 59.89664077758789 56.8769416809082 L 59.79769134521484 56.8950080871582 L 59.08230972290039 52.95951080322266 L 59.17644119262695 52.94231796264648 L 59.275390625 52.92425155639648 Z"/></g><g class="c" transform="translate(-44.322 -23.146)"><path class="d" d="M62.177,54.147c-.294.111-.591.21-.891.3C61.586,54.358,61.883,54.257,62.177,54.147Z"/><path class="e" d="M 62.17670822143555 54.14699935913086 C 62.0297966003418 54.20198440551758 61.88204574584961 54.25466156005859 61.73356246948242 54.30471801757812 C 61.88204574584961 54.25487518310547 62.0297966003418 54.2024040222168 62.17670822143555 54.14699935913086 M 61.73356246948242 54.30471801757812 C 61.58507919311523 54.35456466674805 61.43585586547852 54.40178680419922 61.28600692749023 54.44669723510742 C 61.43585586547852 54.40220642089844 61.58507919311523 54.35477447509766 61.73356246948242 54.30471801757812 M 61.4757080078125 52.27388000488281 L 62.88239669799805 56.01836013793945 C 62.7169075012207 56.08076477050781 62.54537963867188 56.14184188842773 62.37251663208008 56.19990539550781 L 62.37251663208008 56.19990921020508 C 62.19944763183594 56.25825881958008 62.02540588378906 56.31345748901367 61.85524749755859 56.36397933959961 L 60.71183776855469 52.53088760375977 C 60.84346771240234 52.49143981933594 60.97305679321289 52.45033645629883 61.09700775146484 52.40871810913086 C 61.2208137512207 52.36695098876953 61.34821319580078 52.32158279418945 61.4757080078125 52.27388000488281 Z"/></g><g class="c" transform="translate(-45.244 -18.873)"><path class="d" d="M67.03,27.524c.038.032.076.065.113.1C67.106,27.59,67.069,27.556,67.03,27.524Z"/><path class="e" d="M 67.02999877929688 27.52400207519531 C 67.04764556884766 27.53890419006348 67.06528472900391 27.55416870117188 67.08293151855469 27.56962585449219 C 67.06547546386719 27.55415725708008 67.04792022705078 27.53881072998047 67.02999877929688 27.52400207519531 M 67.08293151855469 27.56962585449219 C 67.10308074951172 27.58749198913574 67.12309265136719 27.60552024841309 67.14334106445312 27.62306213378906 C 67.12319946289062 27.60516357421875 67.10306549072266 27.5872688293457 67.08293151855469 27.56962585449219 M 68.30410003662109 25.98235130310059 C 68.33831024169922 26.01062774658203 68.37201690673828 26.03972434997559 68.40536499023438 26.06922149658203 C 68.42757415771484 26.08871459960938 68.44976806640625 26.10842514038086 68.47197723388672 26.1281623840332 L 65.83390808105469 29.13481140136719 C 65.81246948242188 29.11624145507812 65.79116821289062 29.09735298156738 65.7698974609375 29.07840156555176 L 65.76023101806641 29.06979942321777 C 65.7532958984375 29.06374549865723 65.74637603759766 29.05775451660156 65.73944091796875 29.0518913269043 L 68.30410003662109 25.98235130310059 Z"/></g><g class="c" transform="translate(-44.493 -18.969)"><path class="d" d="M67.011,28.3a13.2,13.2,0,0,1-4.659,21.669A13.191,13.191,0,0,0,67.015,28.3c-.06-.06-.123-.118-.184-.178C66.891,28.181,66.952,28.239,67.011,28.3Z"/><path class="e" d="M 66.83074188232422 28.12199401855469 C 66.89120483398438 28.18076324462891 66.95164489746094 28.23869323730469 67.01124572753906 28.29913330078125 C 72.16326904296875 33.45033264160156 72.16326904296875 41.80254364013672 67.01124572753906 46.95457458496094 C 65.64370727539062 48.32211303710938 64.05032348632812 49.32700347900391 62.35200500488281 49.9683837890625 C 64.05116271972656 49.32784271240234 65.64620208740234 48.32631301879883 67.01460266113281 46.95792388916016 C 72.16746520996094 41.80506134033203 72.1666259765625 33.451171875 67.01460266113281 28.29998397827148 C 66.95414733886719 28.23953247070312 66.89204406738281 28.18160247802734 66.83074188232422 28.12199401855469 M 68.22505187988281 26.68815231323242 C 68.24429321289062 26.70686340332031 68.26363372802734 26.7253532409668 68.28295135498047 26.74385452270508 C 68.33188629150391 26.79070281982422 68.38064575195312 26.83760452270508 68.42870330810547 26.88565444946289 C 71.29835510253906 29.75484085083008 72.87879943847656 33.56997299194336 72.87893676757812 37.62826156616211 C 72.87906646728516 41.68673324584961 71.29864501953125 45.50231170654297 68.42881774902344 48.37213134765625 C 66.89211273193359 49.90883255004883 65.08493804931641 51.07552337646484 63.0574951171875 51.83982086181641 L 61.64540863037109 48.09736251831055 C 63.13236236572266 47.53580474853516 64.46188354492188 46.67550277709961 65.59703826904297 45.54036331176758 C 67.71102142333984 43.42635345458984 68.87525177001953 40.61584091186523 68.87525177001953 37.62654113769531 C 68.87525177001953 34.63730239868164 67.71106719970703 31.82704162597656 65.59714508056641 29.71346282958984 L 65.59213256835938 29.70845413208008 L 65.58717346191406 29.70341110229492 C 65.54999542236328 29.66572189331055 65.51228332519531 29.62940216064453 65.47460174560547 29.59287261962891 L 65.43671417236328 29.55610275268555 L 66.83074188232422 28.12199401855469 L 68.22505187988281 26.68815231323242 Z"/></g><g class="c" transform="translate(-43.029 -17.219)"><path class="d" d="M59.055,22.992V17.219H53.228v5.809A13.252,13.252,0,0,1,59.055,22.992Z"/><path class="e" d="M 53.22800064086914 23.02836036682129 C 54.21190643310547 22.80007553100586 55.21733093261719 22.68579483032227 56.22250366210938 22.68579483032227 C 57.17277145385742 22.68579483032227 58.12278366088867 22.78786849975586 59.05498123168945 22.99225997924805 L 59.05582046508789 17.2189998626709 L 53.22800064086914 17.21984100341797 L 53.22800064086914 23.02836036682129 M 51.22800064086914 25.5455207824707 L 51.22800064086914 23.02836036682129 L 51.22800064086914 17.21984100341797 L 51.22800064086914 15.22012996673584 L 53.22771072387695 15.21984004974365 L 59.0555305480957 15.2189998626709 L 61.05611038208008 15.21870994567871 L 61.05582046508789 17.21928977966309 L 61.05498123168945 22.99254989624023 L 61.05461883544922 25.47820091247559 L 58.62664031982422 24.94585037231445 C 57.83959197998047 24.77329063415527 57.03071975708008 24.685791015625 56.22249984741211 24.685791015625 C 55.36716079711914 24.685791015625 54.51174926757812 24.78363990783691 53.68001937866211 24.97661018371582 L 51.22800064086914 25.5455207824707 Z"/></g><g class="c" transform="translate(-45.299 -18.922)"><path class="d" d="M67.376,27.83l.178.165Z"/><path class="e" d="M 67.37600708007812 27.83000373840332 C 67.43560791015625 27.88457298278809 67.49520874023438 27.93998336791992 67.55398559570312 27.99538230895996 C 67.49520874023438 27.93998336791992 67.43560791015625 27.88457298278809 67.37600708007812 27.83000373840332 M 68.72660827636719 26.35491371154785 C 68.79328918457031 26.41597366333008 68.85997009277344 26.47796249389648 68.92573547363281 26.53994369506836 L 66.18223571777344 29.4508228302002 C 66.13044738769531 29.40200233459473 66.07792663574219 29.35317230224609 66.02540588378906 29.30509376525879 L 68.72660827636719 26.35491371154785 Z"/></g><g class="c" transform="translate(-43.948 -23.272)"><path class="d" d="M59.362,54.934c-.135.023-.27.043-.406.062C59.092,54.977,59.227,54.957,59.362,54.934Z"/><path class="e" d="M 59.36232376098633 54.93400192260742 C 59.22716522216797 54.95667266845703 59.09201431274414 54.97682189941406 58.95600509643555 54.99612045288086 C 59.09201431274414 54.97682189941406 59.22716522216797 54.95667266845703 59.36232376098633 54.93400192260742 M 59.031494140625 52.96155166625977 L 59.69315338134766 56.90645217895508 C 59.55829620361328 56.92906951904297 59.41334533691406 56.95125961303711 59.23699569702148 56.97628021240234 L 58.67501449584961 53.01596069335938 C 58.81729507446289 52.99576950073242 58.93057632446289 52.97848129272461 59.031494140625 52.96155166625977 Z"/></g><g class="c" transform="translate(-42.185 -22.873)"><path class="d" d="M47.972,52.445l0,0A13.18,13.18,0,0,0,56.5,54.673,13.193,13.193,0,0,1,47.972,52.445Z"/><path class="e" d="M 47.97167587280273 52.44500732421875 L 47.96999740600586 52.44919967651367 C 50.19797897338867 53.96311950683594 52.78580474853516 54.72090911865234 55.3739013671875 54.72090911865234 C 55.74941635131836 54.72090911865234 56.12491607666016 54.70495986938477 56.49934768676758 54.67304611206055 C 56.12899017333984 54.70420074462891 55.75716781616211 54.71979522705078 55.38571166992188 54.71979522705078 C 52.79421234130859 54.71979522705078 50.20235061645508 53.96198272705078 47.97167587280273 52.44500732421875 M 47.03887557983398 49.3973388671875 L 49.09635543823242 50.79119873046875 C 50.95165634155273 52.05289840698242 53.12648773193359 52.71979904174805 55.38571548461914 52.71979904174805 C 55.70012664794922 52.71979904174805 56.01841735839844 52.70643615722656 56.33172607421875 52.68008804321289 L 56.6691780090332 56.66582870483398 C 56.24029541015625 56.70237731933594 55.80449676513672 56.72090911865234 55.37389755249023 56.72090911865234 C 52.31488800048828 56.72090911865234 49.365966796875 55.81579971313477 46.8459358215332 54.10342788696289 L 45.51465606689453 53.19881820678711 L 46.11365509033203 51.70488739013672 L 47.03887557983398 49.3973388671875 Z"/></g><g class="c" transform="translate(-44.062 -23.255)"><path class="d" d="M59.941,54.828c-.091.019-.18.037-.271.054C59.761,54.865,59.851,54.847,59.941,54.828Z"/><path class="e" d="M 59.941162109375 54.82799530029297 C 59.85050582885742 54.84731674194336 59.76066207885742 54.86495590209961 59.67000579833984 54.88173675537109 C 59.76066207885742 54.86495590209961 59.85050582885742 54.84731674194336 59.941162109375 54.82799530029297 M 59.52431488037109 52.87191772460938 L 60.35801315307617 56.78407669067383 C 60.25497436523438 56.80603790283203 60.14898300170898 56.82705688476562 60.03399276733398 56.84833526611328 L 59.30601501464844 52.91513442993164 C 59.38533401489258 52.90045547485352 59.45674514770508 52.88631439208984 59.52431488037109 52.87191772460938 Z"/></g><g class="c" transform="translate(-44.178 -23.232)"><path class="d" d="M60.586,54.684l-.2.048Z"/><path class="e" d="M 60.58612442016602 54.68399429321289 C 60.51980590820312 54.7007942199707 60.45432281494141 54.71674346923828 60.38800430297852 54.73185348510742 C 60.45432281494141 54.71674346923828 60.51980590820312 54.7007942199707 60.58612442016602 54.68399429321289 M 60.09500503540039 52.74523544311523 L 61.07724380493164 56.62275314331055 C 60.99525451660156 56.64352416992188 60.91428375244141 56.66320419311523 60.83228302001953 56.681884765625 L 59.9437255859375 52.78182220458984 C 59.99436569213867 52.77028274536133 60.04435348510742 52.75806427001953 60.09500503540039 52.74523544311523 Z"/></g><g class="c" transform="translate(-44.492 -23.146)"><path class="d" d="M62.351,54.145l0,0Z"/><path class="e" d="M 62.35120391845703 54.14501190185547 L 62.34700012207031 54.14667510986328 L 62.35120391845703 54.14501190185547 M 61.61186218261719 52.28668212890625 L 63.08634185791016 56.0050048828125 L 63.0821418762207 56.00666427612305 L 61.61186218261719 52.28668212890625 Z"/></g><g class="c" transform="translate(-44.3 -23.203)"><path class="d" d="M61.264,54.5l-.113.032Z"/><path class="e" d="M 61.26433181762695 54.50399780273438 C 61.2265625 54.51491546630859 61.18878173828125 54.52499771118164 61.1510124206543 54.53589630126953 C 61.18878173828125 54.52499771118164 61.2265625 54.51491546630859 61.26433181762695 54.50399780273438 M 60.70884323120117 52.58268737792969 L 61.81982040405273 56.42530822753906 C 61.79400253295898 56.43277740478516 61.76819229125977 56.43997573852539 61.74237060546875 56.44715881347656 L 61.70556259155273 56.45747756958008 L 60.59646224975586 52.61431884765625 C 60.62151336669922 52.60708618164062 60.64656066894531 52.60009765625 60.67161178588867 52.59313583374023 L 60.70884323120117 52.58268737792969 Z"/></g><g class="c" transform="translate(-43.833 -23.288)"><path class="d" d="M58.688,55.032c-.149.018-.3.035-.446.049C58.391,55.067,58.539,55.05,58.688,55.032Z"/><path class="e" d="M 58.68777847290039 55.03200149536133 C 58.53918838500977 55.05047225952148 58.39059066772461 55.0672607421875 58.24200057983398 55.0806999206543 C 58.39059066772461 55.0672607421875 58.53918838500977 55.05047225952148 58.68777847290039 55.03200149536133 M 58.44107818603516 53.04727172851562 L 58.93447875976562 57.01673126220703 C 58.74557876586914 57.04021072387695 58.57799911499023 57.0584716796875 58.42216110229492 57.07257080078125 L 58.06184005737305 53.08882904052734 C 58.17280960083008 53.07879257202148 58.29685974121094 53.06520080566406 58.44107818603516 53.04727172851562 Z"/></g><g class="c" transform="translate(-41.817 -18.944)"><path class="d" d="M45.68,28.274q.157-.157.319-.308Q45.838,28.117,45.68,28.274Z"/><path class="e" d="M 45.67999649047852 28.27410125732422 C 45.78493881225586 28.16916084289551 45.89155960083008 28.06674003601074 45.99901962280273 27.96599960327148 C 45.89155960083008 28.06674003601074 45.78493881225586 28.16916084289551 45.67999649047852 28.27410125732422 M 47.09420776367188 29.68831062316895 L 44.26578903198242 26.85988998413086 C 44.37829971313477 26.74736976623535 44.49781799316406 26.63191032409668 44.63115692138672 26.50690078735352 L 47.36687850952148 29.42510032653809 C 47.26520919799805 29.52040100097656 47.17601776123047 29.60650062561035 47.09420776367188 29.68831062316895 Z"/></g><g class="c" transform="translate(-41.752 -19.003)"><path class="d" d="M45.274,28.687c.112-.12.224-.238.341-.354C45.5,28.449,45.386,28.567,45.274,28.687Z"/><path class="e" d="M 45.27399826049805 28.68727493286133 C 45.38565063476562 28.56721496582031 45.49814987182617 28.44885635375977 45.61484146118164 28.3329963684082 C 45.49814987182617 28.44885635375977 45.38565063476562 28.56721496582031 45.27399826049805 28.68727493286133 M 46.73857879638672 30.04926490783691 L 43.80942153930664 27.32528495788574 C 43.959228515625 27.1641960144043 44.08514022827148 27.03342628479004 44.20568084716797 26.91374588012695 L 47.02399826049805 29.75224494934082 C 46.94091796875 29.83472633361816 46.85290145874023 29.92633628845215 46.73857879638672 30.04926490783691 Z"/></g><g class="c" transform="translate(-44.143 -18.323)"><path class="d" d="M65.929,26.974a13.1,13.1,0,0,0-5.76-2.878v.028A13.13,13.13,0,0,1,65.929,26.974Z"/><path class="e" d="M 65.9288330078125 26.97381782531738 C 64.22883605957031 25.50972747802734 62.2434196472168 24.55016899108887 60.16901016235352 24.09599876403809 L 60.16901016235352 24.12369918823242 C 62.24174118041992 24.57787895202637 64.22883605957031 25.51643753051758 65.9288330078125 26.97381782531738 M 64.62712097167969 28.49221801757812 C 63.22943878173828 27.29400825500488 61.58549118041992 26.48152923583984 59.74092102050781 26.07734870910645 L 58.16901016235352 25.73290824890137 L 58.16901016235352 24.12369918823242 L 58.16901016235352 24.09599876403809 L 58.16901016235352 21.61074829101562 L 60.59675979614258 22.14227867126465 C 63.0413703918457 22.67749786376953 65.33648681640625 23.82418823242188 67.23397827148438 25.4583683013916 L 64.62712097167969 28.49221801757812 Z"/></g><g class="c" transform="translate(-45.333 -18.954)"><path class="d" d="M67.588,28.027l.083.08Z"/><path class="e" d="M 67.58799743652344 28.02699851989746 C 67.61569976806641 28.05386924743652 67.64339447021484 28.08072853088379 67.67110443115234 28.10676002502441 C 67.64339447021484 28.08072853088379 67.61569976806641 28.05386924743652 67.58799743652344 28.02699851989746 M 68.98053741455078 26.59144020080566 C 69.00052642822266 26.6108283996582 69.02044677734375 26.63027000427246 69.04043579101562 26.64904975891113 L 66.30178070068359 29.56446838378906 C 66.26634979248047 29.53118896484375 66.23086547851562 29.49691009521484 66.19545745849609 29.46255874633789 L 68.98053741455078 26.59144020080566 Z"/></g><g class="c" transform="translate(-41.678 -19.083)"><path class="d" d="M44.812,29.2c.106-.125.216-.248.327-.369C45.028,28.956,44.919,29.078,44.812,29.2Z"/><path class="e" d="M 44.81200790405273 29.20338249206543 C 44.91861724853516 29.07829284667969 45.02775955200195 28.95573234558105 45.13940811157227 28.8340015411377 C 45.02775955200195 28.95573234558105 44.91777801513672 29.07829284667969 44.81200790405273 29.20338249206543 M 46.33417892456055 30.50068283081055 L 43.2847785949707 27.91203117370605 C 43.394287109375 27.78252220153809 43.5152587890625 27.64592170715332 43.66548919677734 27.48213195800781 L 46.61332702636719 30.18587112426758 C 46.51022720336914 30.29829216003418 46.41891860961914 30.4012622833252 46.33417892456055 30.50068283081055 Z"/></g><g class="c" transform="translate(-45.265 -18.892)"><path class="d" d="M67.165,27.642l.177.158Z"/><path class="e" d="M 67.16500091552734 27.64200592041016 C 67.22377014160156 27.69404602050781 67.28337097167969 27.7469367980957 67.34213256835938 27.79982757568359 C 67.28337097167969 27.7469367980957 67.22377014160156 27.69404602050781 67.16500091552734 27.64200592041016 M 68.49088287353516 26.14465713500977 C 68.55368041992188 26.20026588439941 68.61734771728516 26.25679588317871 68.68013763427734 26.31331634521484 L 66.00411987304688 29.28633689880371 C 65.94939422607422 29.23707580566406 65.89385986328125 29.18782615661621 65.83911895751953 29.13935661315918 L 68.49088287353516 26.14465713500977 Z"/></g><g class="c" transform="translate(-41.888 -18.33)"><path class="d" d="M52.088,24.139A13.117,13.117,0,0,0,46.122,27.3a13.127,13.127,0,0,1,5.966-3.127Z"/><path class="e" d="M 52.08750534057617 24.13900566101074 C 49.92158508300781 24.64102554321289 47.85893630981445 25.6954460144043 46.12200546264648 27.30392646789551 C 47.85725402832031 25.70215606689453 49.92410659790039 24.68047523498535 52.08750534057617 24.17677688598633 L 52.08750534057617 24.13900566101074 M 54.08750534057617 21.62242698669434 L 54.08750534057617 24.13900566101074 L 54.08750534057617 24.17677688598633 L 54.08750534057617 25.76461601257324 L 52.54103469848633 26.12467575073242 C 50.59513473510742 26.57773590087891 48.89187622070312 27.46893692016602 47.47856521606445 28.77353668212891 L 44.76309585571289 25.83649635314941 C 46.69748687744141 24.04515647888184 49.07406616210938 22.78444671630859 51.63591384887695 22.1906566619873 L 54.08750534057617 21.62242698669434 Z"/></g><g class="c" transform="translate(-41.109 -19.156)"><path class="d" d="M44.232,29.29a13.117,13.117,0,0,0-2.966,6.489l.013,0A13.128,13.128,0,0,1,44.232,29.29Z"/><path class="e" d="M 44.23196029663086 29.29000091552734 C 42.61676025390625 31.19314956665039 41.62783050537109 33.44721984863281 41.2660026550293 35.77936172485352 L 41.27859115600586 35.78356170654297 C 41.64043045043945 33.45058059692383 42.61844253540039 31.19483184814453 44.23196029663086 29.29000091552734 M 42.70709991455078 27.9958610534668 L 45.75804138183594 30.58270263671875 C 44.43754196166992 32.1416130065918 43.57199096679688 34.0460319519043 43.25496292114258 36.09009170532227 L 42.89202117919922 38.43015289306641 L 40.64568328857422 37.68077850341797 L 40.63309097290039 37.67658233642578 L 39.03066253662109 37.14201354980469 L 39.28964996337891 35.47273254394531 C 39.71817016601562 32.7106819152832 40.89990997314453 30.12522125244141 42.70709991455078 27.9958610534668 Z"/></g><g class="c" transform="translate(-41.079 -18.264)"><path class="d" d="M63.6,27.594c-.06-.06-.12-.118-.181-.177l-.083-.08-.178-.165-.177-.158c-.038-.034-.076-.067-.113-.1a13.13,13.13,0,0,0-5.76-2.85v-.028a13.252,13.252,0,0,0-5.827.036v.038a13.127,13.127,0,0,0-5.966,3.127l-.052.048q-.161.151-.319.308c-.117.116-.229.234-.341.354l-.06.066c-.112.122-.222.244-.327.369L44.2,28.4a13.128,13.128,0,0,0-2.953,6.494l-.013,0a13.2,13.2,0,0,0,5.628,12.954l0,0a13.193,13.193,0,0,0,8.528,2.228l.094-.008c.149-.013.3-.03.446-.049l.154-.02c.136-.019.271-.039.406-.062l.193-.035c.091-.017.18-.034.271-.054.111-.023.222-.047.332-.073l.2-.048q.222-.055.442-.119l.113-.032c.3-.09.6-.189.891-.3l0,0A13.2,13.2,0,0,0,63.6,27.594ZM48.971,42.224a7.5,7.5,0,1,1,10.6,0A7.5,7.5,0,0,1,48.971,42.224Z"/><path class="e" d="M 54.2725715637207 23.73094177246094 C 53.26728439331055 23.73093414306641 52.26208114624023 23.84519958496094 51.27805709838867 24.07351303100586 L 51.27805709838867 24.11128234863281 C 49.11465835571289 24.61499404907227 47.04779815673828 25.63666152954102 45.31254577636719 27.23843383789062 L 45.260498046875 27.28628158569336 C 45.15304565429688 27.38702392578125 45.04642486572266 27.48944091796875 44.94147491455078 27.59438323974609 C 44.82479858398438 27.71023178100586 44.71229553222656 27.8286018371582 44.60064697265625 27.94865417480469 C 44.58049774169922 27.97048187255859 44.56034851074219 27.99230194091797 44.54020690917969 28.01497268676758 C 44.42855072021484 28.13670349121094 44.31858062744141 28.25927352905273 44.21279907226562 28.38435363769531 L 44.20188903808594 28.39779281616211 C 42.58837127685547 30.3026237487793 41.61033630371094 32.5583610534668 41.24850463867188 34.89134216308594 L 41.23593139648438 34.88714218139648 C 40.611328125 38.9041633605957 41.84623718261719 43.15457153320312 44.94147491455078 46.24981307983398 C 45.54172897338867 46.85006332397461 46.18645858764648 47.37978363037109 46.86394882202148 47.84067153930664 L 46.86562728881836 47.83647155761719 C 49.09613800048828 49.35334777832031 51.68830108642578 50.11125946044922 54.27962493896484 50.11125946044922 C 54.65126419067383 50.11125946044922 55.02275848388672 50.09568023681641 55.3932991027832 50.06451416015625 C 55.42435836791992 50.06199264526367 55.45625686645508 50.05948257446289 55.4873161315918 50.05696105957031 C 55.63590621948242 50.04353332519531 55.78450775146484 50.0267333984375 55.93308639526367 50.00826263427734 C 55.98430633544922 50.00155258178711 56.03551864624023 49.99484252929688 56.08672714233398 49.98811340332031 C 56.22272872924805 49.96881103515625 56.35788726806641 49.94866180419922 56.49303817749023 49.92600250244141 C 56.55767822265625 49.91424179077148 56.62148666381836 49.90249252319336 56.68612670898438 49.89073181152344 C 56.77679824829102 49.87395477294922 56.86662673950195 49.8563232421875 56.9572868347168 49.83700180053711 C 57.06810760498047 49.8143424987793 57.17892837524414 49.78999328613281 57.28888702392578 49.76397323608398 C 57.35520935058594 49.74886322021484 57.42068862915039 49.73291015625 57.48701858520508 49.71612167358398 C 57.6347770690918 49.67918395996094 57.78251647949219 49.63972473144531 57.92943572998047 49.5969123840332 C 57.96721649169922 49.58600234985352 58.00499725341797 49.57592010498047 58.04275894165039 49.56501007080078 C 58.34246826171875 49.47518157958984 58.6396484375 49.37612152099609 58.93347930908203 49.26531219482422 L 58.93767929077148 49.26363372802734 C 60.6359977722168 48.62225341796875 62.22937774658203 47.61736297607422 63.59692764282227 46.24981307983398 C 68.74894714355469 41.09779357910156 68.74894714355469 32.74557113647461 63.59692764282227 27.59438323974609 C 63.53731918334961 27.53394317626953 63.47687911987305 27.47601318359375 63.41641616821289 27.41725158691406 C 63.38871765136719 27.3912239074707 63.36101913452148 27.36436080932617 63.33331680297852 27.33749389648438 C 63.2745475769043 27.2820930480957 63.21493911743164 27.22668075561523 63.15533828735352 27.17211151123047 C 63.0965690612793 27.11923217773438 63.03696823120117 27.06633377075195 62.97820663452148 27.0142822265625 C 62.94042587280273 26.980712890625 62.90264892578125 26.9471321105957 62.8648681640625 26.91522216796875 C 61.16486740112305 25.45785140991211 59.17776870727539 24.51928329467773 57.10503768920898 24.06511306762695 L 57.10503768920898 24.03741073608398 C 56.17295455932617 23.83304214477539 55.22272109985352 23.73094940185547 54.2725715637207 23.73094177246094 M 54.27140426635742 44.41959381103516 C 52.35280227661133 44.41959381103516 50.43453216552734 43.68783187866211 48.97109603881836 42.22440338134766 C 46.04291915893555 39.29705429077148 46.04207611083984 34.54966354370117 48.96941757202148 31.62232208251953 C 50.43315505981445 30.15900421142578 52.35184478759766 29.42722702026367 54.26995468139648 29.42722702026367 C 56.18900299072266 29.42722702026367 58.10747146606445 30.15912628173828 59.57149887084961 31.62315368652344 C 62.49884796142578 34.54966354370117 62.49968719482422 39.29705429077148 59.57149887084961 42.22440338134766 C 58.10800552368164 43.68789672851562 56.18953704833984 44.41959381103516 54.27140426635742 44.41959381103516 M 54.27243804931641 21.73094177246094 L 54.27258682250977 21.73094177246094 C 55.36843872070312 21.73095321655273 56.46552658081055 21.84968185424805 57.53338623046875 22.08382415771484 L 59.10503768920898 22.42842102050781 L 59.10503768920898 22.5441780090332 C 60.9660530090332 23.16402053833008 62.69137191772461 24.13327407836914 64.16191101074219 25.392822265625 C 64.20990753173828 25.43350982666016 64.25801086425781 25.47599411010742 64.30598449707031 25.51862335205078 C 64.36696624755859 25.5726318359375 64.43046569824219 25.62901306152344 64.49308776855469 25.68536376953125 L 64.49954223632812 25.691162109375 L 64.50593566894531 25.697021484375 C 64.57266235351562 25.75811386108398 64.63939666748047 25.82014083862305 64.70518493652344 25.88217163085938 L 64.71559906005859 25.89198303222656 L 64.72586059570312 25.90193176269531 C 64.74592590332031 25.92140197753906 64.76594543457031 25.94092178344727 64.78601837158203 25.95978164672852 L 64.79826354980469 25.9713020324707 L 64.81033325195312 25.9830207824707 L 64.84400939941406 26.01570129394531 C 64.90151214599609 26.07143020629883 64.95877075195312 26.12715148925781 65.01554107666016 26.18456649780273 C 67.88211822509766 29.05313873291016 69.4609375 32.8662109375 69.4609375 36.92178344726562 C 69.4609375 40.97952270507812 67.88063812255859 44.79453277587891 65.01113891601562 47.66402435302734 C 63.47663497924805 49.19853591918945 61.67739486694336 50.36374664306641 59.66339111328125 51.12741851806641 L 59.66200637817383 51.12797164916992 L 59.63920593261719 51.13666152954102 C 59.31547927856445 51.25874328613281 58.9715461730957 51.37453460693359 58.61696624755859 51.48081207275391 L 58.60744857788086 51.48366165161133 L 58.59790802001953 51.48641967773438 C 58.5723762512207 51.49380493164062 58.54683685302734 51.50093078613281 58.52129745483398 51.50802230834961 L 58.48431777954102 51.51840209960938 C 58.32449722290039 51.56496810913086 58.15587997436523 51.61044692993164 57.97343444824219 51.65607452392578 C 57.89564895629883 51.67573928833008 57.81875228881836 51.69441986083984 57.74100112915039 51.71221160888672 C 57.61859130859375 51.74109649658203 57.49251556396484 51.76885986328125 57.36598205566406 51.79481506347656 C 57.26564407348633 51.81611251831055 57.16221237182617 51.83658599853516 57.05007934570312 51.85734176635742 L 57.04709625244141 51.85789489746094 L 57.04411697387695 51.85843276977539 L 56.94965744018555 51.87568283081055 L 56.85102844238281 51.89369964599609 L 56.83740615844727 51.89618301391602 L 56.82374572753906 51.89847183227539 C 56.68894577026367 51.92107391357422 56.54404830932617 51.94325256347656 56.36773681640625 51.9682731628418 L 56.35753631591797 51.96972274780273 L 56.34732818603516 51.97106170654297 L 56.19287872314453 51.9913215637207 L 56.18634796142578 51.99217224121094 L 56.17980575561523 51.99298095703125 C 55.99060821533203 52.01650238037109 55.8229866027832 52.03477478027344 55.6673469543457 52.04884338378906 L 55.65820693969727 52.04967498779297 L 55.6490592956543 52.0504150390625 L 55.59958648681641 52.05438232421875 L 55.55654144287109 52.05784225463867 C 55.1336784362793 52.09328460693359 54.70407485961914 52.11126327514648 54.27962875366211 52.11126327514648 C 52.04319000244141 52.11126327514648 49.86668395996094 51.62874603271484 47.87366485595703 50.70156097412109 L 47.7983283996582 50.88990020751953 L 45.73899841308594 49.49430084228516 C 44.94728851318359 48.95571136474609 44.20314788818359 48.33991241455078 43.52726745605469 47.66402435302734 C 41.80902099609375 45.94577026367188 40.51564025878906 43.82035064697266 39.78694915771484 41.51752090454102 C 39.08246612548828 39.29117202758789 38.90013885498047 36.89217376708984 39.25967407226562 34.57986068725586 L 39.62345123291016 32.24027252197266 L 39.80755615234375 32.30174255371094 C 40.40902709960938 30.40496826171875 41.37611389160156 28.64395904541016 42.66180419921875 27.12164688110352 L 42.67269134521484 27.10824203491211 L 42.68567657470703 27.09287261962891 C 42.79318237304688 26.96576309204102 42.91143798828125 26.83211517333984 43.05714416503906 26.67307281494141 C 43.08153533935547 26.64584732055664 43.10590362548828 26.61933135986328 43.13032531738281 26.59287261962891 L 43.13288116455078 26.59011077880859 L 43.13613128662109 26.58660125732422 C 43.28487396240234 26.42666244506836 43.40996551513672 26.29669952392578 43.52947998046875 26.17795562744141 C 43.64131164550781 26.06618118286133 43.76010131835938 25.95143890380859 43.892578125 25.82724380493164 L 43.89972686767578 25.82054138183594 L 43.90693664550781 25.81391143798828 L 43.958984375 25.76606369018555 C 45.47287368774414 24.36862564086914 47.28972244262695 23.29279327392578 49.27805709838867 22.60823440551758 L 49.27805709838867 22.48442077636719 L 50.82602691650391 22.12526321411133 C 51.95375823974609 21.86361312866211 53.11329650878906 21.73094177246094 54.27243804931641 21.73094177246094 Z M 54.27140808105469 42.41959381103516 C 55.73941802978516 42.41959381103516 57.11944580078125 41.8480339050293 58.15727615356445 40.8101921081543 C 59.19568634033203 39.7720832824707 59.76740646362305 38.39186096191406 59.76732635498047 36.9235725402832 C 59.76724624633789 35.45538330078125 59.19552612304688 34.07531356811523 58.15748596191406 33.03757095336914 C 57.11897659301758 31.99905395507812 55.73842620849609 31.42723083496094 54.26995849609375 31.42723083496094 C 52.80189895629883 31.42723083496094 51.42162704467773 31.99883270263672 50.38342666625977 33.0367431640625 C 49.34568786621094 34.07448196411133 48.77419662475586 35.45473098754883 48.77443695068359 36.92303085327148 C 48.77467727661133 38.39145278930664 49.34669876098633 39.7718620300293 50.38510894775391 40.80999374389648 C 51.42314910888672 41.8480339050293 52.80325698852539 42.41959381103516 54.27140808105469 42.41959381103516 Z"/></g><path class="b" d="M58.927,55.008l-.154.02Z" transform="translate(-43.918 -23.284)"/><path class="b" d="M58.224,55.09l-.094.008Z" transform="translate(-43.815 -23.297)"/><path class="b" d="M46.06,27.957l.052-.048Z" transform="translate(-41.878 -18.935)"/><path class="b" d="M44.8,29.287l.011-.013Z" transform="translate(-41.676 -19.154)"/><path class="b" d="M45.2,28.821l.06-.066Z" transform="translate(-41.74 -19.07)"/><path class="b" d="M60.325,54.741c-.11.026-.221.05-.332.073C60.1,54.791,60.215,54.767,60.325,54.741Z" transform="translate(-44.114 -23.241)"/><path class="b" d="M61.066,54.542q-.22.064-.442.119Q60.846,54.606,61.066,54.542Z" transform="translate(-44.216 -23.209)"/><path class="b" d="M59.633,54.892l-.193.035Z" transform="translate(-44.026 -23.265)"/><path class="b" d="M62.177,54.147c-.294.111-.591.21-.891.3C61.586,54.358,61.883,54.257,62.177,54.147Z" transform="translate(-44.322 -23.146)"/><path class="b" d="M67.03,27.524c.038.032.076.065.113.1C67.106,27.59,67.069,27.556,67.03,27.524Z" transform="translate(-45.244 -18.873)"/><path class="b" d="M67.011,28.3a13.2,13.2,0,0,1-4.659,21.669A13.191,13.191,0,0,0,67.015,28.3c-.06-.06-.123-.118-.184-.178C66.891,28.181,66.952,28.239,67.011,28.3Z" transform="translate(-44.493 -18.969)"/><path class="b" d="M59.055,22.992V17.219H53.228v5.809A13.252,13.252,0,0,1,59.055,22.992Z" transform="translate(-43.029 -17.219)"/><path class="b" d="M67.376,27.83l.178.165Z" transform="translate(-45.299 -18.922)"/><path class="b" d="M59.362,54.934c-.135.023-.27.043-.406.062C59.092,54.977,59.227,54.957,59.362,54.934Z" transform="translate(-43.948 -23.272)"/><path class="b" d="M47.972,52.445l0,0A13.18,13.18,0,0,0,56.5,54.673,13.193,13.193,0,0,1,47.972,52.445Z" transform="translate(-42.185 -22.873)"/><path class="b" d="M59.941,54.828c-.091.019-.18.037-.271.054C59.761,54.865,59.851,54.847,59.941,54.828Z" transform="translate(-44.062 -23.255)"/><path class="b" d="M60.586,54.684l-.2.048Z" transform="translate(-44.178 -23.232)"/><path class="b" d="M62.351,54.145l0,0Z" transform="translate(-44.492 -23.146)"/><path class="b" d="M61.264,54.5l-.113.032Z" transform="translate(-44.3 -23.203)"/><path class="b" d="M58.688,55.032c-.149.018-.3.035-.446.049C58.391,55.067,58.539,55.05,58.688,55.032Z" transform="translate(-43.833 -23.288)"/><path class="b" d="M45.68,28.274q.157-.157.319-.308Q45.838,28.117,45.68,28.274Z" transform="translate(-41.817 -18.944)"/><path class="b" d="M45.274,28.687c.112-.12.224-.238.341-.354C45.5,28.449,45.386,28.567,45.274,28.687Z" transform="translate(-41.752 -19.003)"/><path class="b" d="M65.929,26.974a13.1,13.1,0,0,0-5.76-2.878v.028A13.13,13.13,0,0,1,65.929,26.974Z" transform="translate(-44.143 -18.323)"/><path class="b" d="M67.588,28.027l.083.08Z" transform="translate(-45.333 -18.954)"/><path class="b" d="M44.812,29.2c.106-.125.216-.248.327-.369C45.028,28.956,44.919,29.078,44.812,29.2Z" transform="translate(-41.678 -19.083)"/><path class="b" d="M67.165,27.642l.177.158Z" transform="translate(-45.265 -18.892)"/><path class="b" d="M52.088,24.139A13.117,13.117,0,0,0,46.122,27.3a13.127,13.127,0,0,1,5.966-3.127Z" transform="translate(-41.888 -18.33)"/><path class="b" d="M44.232,29.29a13.117,13.117,0,0,0-2.966,6.489l.013,0A13.128,13.128,0,0,1,44.232,29.29Z" transform="translate(-41.109 -19.156)"/><path class="b" d="M63.6,27.594c-.06-.06-.12-.118-.181-.177l-.083-.08-.178-.165-.177-.158c-.038-.034-.076-.067-.113-.1a13.13,13.13,0,0,0-5.76-2.85v-.028a13.252,13.252,0,0,0-5.827.036v.038a13.127,13.127,0,0,0-5.966,3.127l-.052.048q-.161.151-.319.308c-.117.116-.229.234-.341.354l-.06.066c-.112.122-.222.244-.327.369L44.2,28.4a13.128,13.128,0,0,0-2.953,6.494l-.013,0a13.2,13.2,0,0,0,5.628,12.954l0,0a13.193,13.193,0,0,0,8.528,2.228l.094-.008c.149-.013.3-.03.446-.049l.154-.02c.136-.019.271-.039.406-.062l.193-.035c.091-.017.18-.034.271-.054.111-.023.222-.047.332-.073l.2-.048q.222-.055.442-.119l.113-.032c.3-.09.6-.189.891-.3l0,0A13.2,13.2,0,0,0,63.6,27.594ZM48.971,42.224a7.5,7.5,0,1,1,10.6,0A7.5,7.5,0,0,1,48.971,42.224Z" transform="translate(-41.079 -18.264)"/></g><path class="a" d="M62.832,61.9l.991,5.055-1.619.27L61.131,61.9Z" transform="translate(-39.775 -24.39)"/><circle class="a" cx="2.063" cy="2.063" r="2.063" transform="translate(6.498 37.355)"/></g></g></g></svg>