<svg xmlns="http://www.w3.org/2000/svg" xmlns:xlink="http://www.w3.org/1999/xlink" width="164.674" height="109.45" viewBox="0 0 164.674 109.45"><defs><style>.a{fill:#fff;stroke:#707070;}.b{opacity:0.997;}.c{clip-path:url(#a);}.d,.e,.g{fill:none;stroke-linejoin:round;}.d,.g{stroke:#ff7f41;}.d,.e{stroke-linecap:round;}.e{stroke:#fff;}.f{fill:#ff7f41;}.h{filter:url(#d);}.i{filter:url(#b);}</style><clipPath id="a"><rect class="a" width="80" height="109" transform="translate(-0.105 -0.049)"/></clipPath><filter id="b" x="41.635" y="7.471" width="20.477" height="22.675" filterUnits="userSpaceOnUse"><feOffset dx="4" dy="4" input="SourceAlpha"/><feGaussianBlur stdDeviation="3" result="c"/><feFlood flood-opacity="0.059"/><feComposite operator="in" in2="c"/><feComposite in="SourceGraphic"/></filter><filter id="d" x="27.405" y="2.737" width="20.041" height="20.607" filterUnits="userSpaceOnUse"><feOffset dx="4" dy="4" input="SourceAlpha"/><feGaussianBlur stdDeviation="3" result="e"/><feFlood flood-opacity="0.059"/><feComposite operator="in" in2="e"/><feComposite in="SourceGraphic"/></filter></defs><g transform="translate(-91.896 -2290.5)"><g class="b" transform="translate(92 2291)"><g class="c" transform="translate(0 0)"><g transform="translate(0.943 -3.546)"><g transform="translate(0 0)"><line class="d" x2="15.91" transform="translate(31.063 34.098)"/><path class="d" d="M361.813,98.668l3.808-27.832a9.731,9.731,0,0,1,9.363-7.249h7.335A9.722,9.722,0,0,0,392.1,53.92V51.61" transform="translate(-360.159 -23.793)"/><path class="d" d="M448.485,96.436l-3.121-25.562a9.729,9.729,0,0,0-9.426-7.257h-7.3a9.722,9.722,0,0,1-9.722-9.722V51.61" transform="translate(-372.706 -23.793)"/><path class="d" d="M371.218,128.09s-6.968,3.862-10.83-8.31,9.543-13.007,11.923-12.6c4.362.78,10.924,4.533,10.924,4.533" transform="translate(-359.693 -35.987)"/><path class="d" d="M419.14,113.55a100.978,100.978,0,0,0-27.957,11.33c-14.435,8.583-23.018,2.185-16.963-4.533,3.535-3.776,2.614-7.725,13.858-8.981s12.843-.671,17.634-1.561,11.493-5.189,17.7-2.84C423.408,106.926,421.4,107.168,419.14,113.55Z" transform="translate(-362.454 -35.804)"/><path class="d" d="M378.163,107.415s9.231-4.315,18.469,3.246" transform="translate(-363.752 -35.786)"/><path class="d" d="M397.813,126.337h38.826s1.919-2.981-11.891-10.737" transform="translate(-368.069 -37.854)"/><path class="d" d="M437.813,106.778c11.884-4.128,21.481,3.168,15.605,12.851s-11.236,4.51-11.236,4.51" transform="translate(-376.859 -35.657)"/><line class="d" y2="7.256" transform="translate(15.434 63.225)"/><line class="d" y2="7.256" transform="translate(63.03 63.225)"/><path class="d" d="M379.473,134.081v17.564h47.6V129.36" transform="translate(-364.04 -40.878)"/><path class="d" d="M413.155,299.429V172.44h-8.872V299.429" transform="translate(-369.491 -50.344)"/><path class="d" d="M386.433,293.526l-6.96-135.606h47.6l-6.96,135.606" transform="translate(-364.04 -44.44)"/><path class="d" d="M452.351,71.748a9.729,9.729,0,0,0-9.418-7.288" transform="translate(-377.984 -26.617)"/><path class="d" d="M415.653,335.18l12.781,9.3a2.341,2.341,0,0,0,3.4-3.121l-3.776-6.156" transform="translate(-371.989 -86.103)"/><path class="d" d="M399.622,335.18l-12.773,9.3a2.341,2.341,0,0,1-3.4-3.121l3.776-6.156" transform="translate(-364.83 -86.103)"/><line class="d" x2="12.609" transform="translate(43.664 245.098)"/><line class="d" x2="12.601" transform="translate(22.511 245.098)"/><path class="d" d="M433.02,163s-2.107,11.54,4.963,11.7" transform="translate(-375.741 -48.269)"/><path class="d" d="M385.626,163s2.107,11.54-4.963,11.7" transform="translate(-364.301 -48.269)"/><line class="d" x2="47.206" transform="translate(15.629 114.692)"/><line class="d" x1="1.022" y2="22.48" transform="translate(49.968 222.618)"/><line class="d" x2="1.022" y2="22.48" transform="translate(27.341 222.618)"/><path class="d" d="M398.58,333.66,392.174,339a1.561,1.561,0,0,1-2.2-.212,1.58,1.58,0,0,1-.207-.326c-.2-.562-.055-1.272,1.038-2.1" transform="translate(-366.285 -85.769)"/><path class="d" d="M419.353,333.66,425.759,339a1.561,1.561,0,0,0,2.2-.223,1.528,1.528,0,0,0,.2-.315c.211-.562.062-1.272-1.03-2.1" transform="translate(-372.802 -85.769)"/><line class="e" x1="2.388" y2="22.292" transform="translate(5.953 47.651)"/><path class="f" d="M371.813,16.647h0V16.7a7.415,7.415,0,0,0,.141-.741A4.7,4.7,0,0,1,371.813,16.647Z" transform="translate(-362.356 -15.96)"/><circle class="d" cx="3.706" cy="3.706" r="3.706" transform="translate(30.548 15.293)"/><path class="d" d="M407.513,37.423l.078-.062a2.513,2.513,0,0,1,3.347,0l.062.055" transform="translate(-370.201 -20.522)"/><path class="d" d="M397.13,38c-1.022,0-1.857,1.225-1.857,2.739s.835,2.747,1.857,2.747" transform="translate(-367.511 -20.803)"/><path class="d" d="M421.873,43.516c1.03,0,1.857-1.233,1.857-2.747S422.9,38,421.873,38" transform="translate(-373.356 -20.803)"/><path class="d" d="M416.618,28.862a5.459,5.459,0,0,0,1.147-3.831,4.157,4.157,0,0,0-4.354-3.761,16.278,16.278,0,0,0-5.22.78,20.462,20.462,0,0,0-4.5,1.818l-.46-2.029s-5.868,1.857-4.494,5.462c0,0-2.747.858-1.186,8.247a.854.854,0,0,0,.117-.1c.414-.4,1.795-1.99,2.06-5.516a15.746,15.746,0,0,0,0-1.607s.32.187.874.453c2.052,1,7.491,3.2,13.265,1.841a20.138,20.138,0,0,0,.265,2.669,3.7,3.7,0,0,1,1.272,2.778,3.78,3.78,0,0,1-.062.609,2.493,2.493,0,0,0,.343.359s.242-.7.523-1.693C416.922,33.106,417.819,29.259,416.618,28.862Z" transform="translate(-367.906 -17.126)"/><path class="d" d="M399.853,32.45c-.265,3.55-1.646,5.111-2.076,5.516a13.839,13.839,0,0,0-.125,1.935c0,6.39,4.229,11.571,9.449,11.571" transform="translate(-368.034 -19.583)"/><path class="d" d="M408.038,51.117c5.22,0,9.449-5.181,9.449-11.571a14.021,14.021,0,0,0-.148-2.013c-.281.991-.523,1.693-.523,1.693a2.491,2.491,0,0,1-.343-.359,3.715,3.715,0,1,1-1.209-3.386A20.128,20.128,0,0,1,415,32.811c-5.805,1.358-11.244-.843-13.265-1.841" transform="translate(-368.931 -19.258)"/><g class="i" transform="matrix(1, 0, 0, 1, -1.05, 3.05)"><path class="d" d="M420.232,40.136a3.794,3.794,0,0,0,.062-.609,3.7,3.7,0,0,0-1.272-2.778" transform="translate(-371.68 -23.57)"/></g><path class="d" d="M417.29,36.49a3.707,3.707,0,1,0,1.209,3.386" transform="translate(-370.997 -20.268)"/><g class="h" transform="matrix(1, 0, 0, 1, -1.05, 3.05)"><path class="d" d="M401.4,30.873c-.554-.265-.874-.453-.874-.453v1.607" transform="translate(-367.62 -22.18)"/></g></g></g></g><path class="f" d="M432.6,84.536l-1.459-1.459-1.467,1.459a4.634,4.634,0,0,0-5.2.187,3.55,3.55,0,1,0-3.262,4.947,3.623,3.623,0,0,0,1.428-.3,4.682,4.682,0,1,0,8.513-3.347Zm-11.392,2.973a1.389,1.389,0,1,1,1.381-1.4v.016A1.388,1.388,0,0,1,421.212,87.509Zm6.008,3.636a2.653,2.653,0,1,1,2.653-2.653,2.653,2.653,0,0,1-2.653,2.653Z" transform="translate(-370.093 -35.536)"/></g><g transform="translate(199.387 2291)"><g transform="translate(0 0)"><path class="g" d="M1035.793,418.079c1.007,0,1.822,1.206,1.822,2.694s-.816,2.695-1.822,2.695" transform="translate(-1009.795 -404.131)"/><path class="g" d="M1011.018,423.468c-1.007,0-1.822-1.207-1.822-2.695s.816-2.694,1.822-2.694" transform="translate(-1003.589 -404.131)"/><path class="g" d="M1023.819,418.079l1.805,7.375h-1.941" transform="translate(-1006.969 -404.131)"/><g transform="translate(7.43 6.057)"><path class="g" d="M1031.12,413.473c-7.713.547-10.152-3.126-10.914-5.687" transform="translate(-1013.588 -407.786)"/><path class="g" d="M1018.191,407.786c.762,2.561,3.2,6.234,10.914,5.687a13.409,13.409,0,0,1,1.036,5.207c0,6.282-4.157,11.375-9.284,11.375s-9.284-5.094-9.284-11.375C1011.573,413.534,1014.364,409.19,1018.191,407.786Z" transform="translate(-1011.573 -407.786)"/></g><path class="d" d="M1035.084,437.349V416.8c0-8.691-7.433-15.736-16.6-15.736h0c-9.169,0-16.6,7.045-16.6,15.736v20.553" transform="translate(-1001.882 -401.06)"/><line class="d" x2="15.3" transform="translate(9.163 30.552)"/></g></g><path class="d" d="M361.813,99.218l3.852-28.157a9.845,9.845,0,0,1,9.473-7.333h7.42a9.835,9.835,0,0,0,9.891-9.78V51.61" transform="translate(-183.496 2263.661)"/><path class="d" d="M448.83,96.96,445.673,71.1a9.843,9.843,0,0,0-9.536-7.341h-7.389a9.836,9.836,0,0,1-9.836-9.836V51.61" transform="translate(-195.523 2263.661)"/><path class="d" d="M371.352,128.335s-7.049,3.907-10.957-8.407,9.654-13.159,12.062-12.749c4.413.789,11.051,4.586,11.051,4.586" transform="translate(-183.05 2251.973)"/><path class="d" d="M419.687,113.635A102.156,102.156,0,0,0,391.4,125.1c-14.6,8.683-23.287,2.21-17.161-4.586,3.576-3.821,2.644-7.815,14.019-9.086s12.993-.679,17.84-1.579,11.628-5.249,17.911-2.873C424.005,106.933,421.977,107.178,419.687,113.635Z" transform="translate(-185.695 2252.148)"/><path class="d" d="M378.163,107.429s9.338-4.365,18.685,3.284" transform="translate(-186.94 2252.165)"/><path class="d" d="M397.813,126.462h39.28s1.942-3.015-12.03-10.862" transform="translate(-191.078 2250.183)"/><path class="d" d="M437.813,106.792c12.022-4.176,21.732,3.2,15.788,13s-11.367,4.563-11.367,4.563" transform="translate(-199.503 2252.29)"/><line class="d" y2="7.341" transform="translate(192.258 2351.093)"/><line class="d" y2="7.341" transform="translate(240.41 2351.093)"/><path class="d" d="M452.461,71.833a9.843,9.843,0,0,0-9.528-7.373" transform="translate(-200.582 2260.955)"/><path class="d" d="M379.473,133.931v17.006h47.6V129.36" transform="translate(-187.396 2247.285)"/><path class="f" d="M432.6,84.536l-1.459-1.459-1.467,1.459a4.634,4.634,0,0,0-5.2.187,3.55,3.55,0,1,0-3.262,4.947,3.623,3.623,0,0,0,1.428-.3,4.682,4.682,0,1,0,8.513-3.347Zm-11.392,2.973a1.389,1.389,0,1,1,1.381-1.4v.016A1.388,1.388,0,0,1,421.212,87.509Zm6.008,3.636a2.653,2.653,0,1,1,2.653-2.653,2.653,2.653,0,0,1-2.653,2.653Z" transform="translate(-193.492 2255.464)"/></g></svg>