<svg xmlns="http://www.w3.org/2000/svg" xmlns:xlink="http://www.w3.org/1999/xlink" width="92.434" height="92.434" viewBox="0 0 92.434 92.434"><defs><style>.a{fill:#ff7f41;}.b{fill:#fff;}.c{filter:url(#a);}</style><filter id="a" x="0" y="0" width="92.434" height="92.434" filterUnits="userSpaceOnUse"><feOffset dx="4" dy="4" input="SourceAlpha"/><feGaussianBlur stdDeviation="3" result="b"/><feFlood flood-color="#050506" flood-opacity="0.18"/><feComposite operator="in" in2="b"/><feComposite in="SourceGraphic"/></filter></defs><g transform="translate(-2.259 -2.259)"><g transform="translate(7.259 7.259)"><g class="c" transform="matrix(1, 0, 0, 1, -5, -5)"><circle class="a" cx="37.217" cy="37.217" r="37.217" transform="translate(5 5)"/></g></g><g transform="translate(20.218 22.741)"><path class="b" d="M84.142,42.449A14.627,14.627,0,0,0,69.606,27.823V34.04a8.41,8.41,0,0,1,8.328,8.409Z" transform="translate(-35.626 -27.823)"/><path class="b" d="M24.472,42.449A14.627,14.627,0,0,1,39.008,27.823V34.04a8.41,8.41,0,0,0-8.328,8.409Z" transform="translate(-24.472 -27.823)"/><rect class="b" width="20.711" height="6.236" transform="translate(14.235 0)"/><g transform="translate(0 25.421)"><path class="b" d="M24.472,61.589A14.627,14.627,0,0,0,39.008,76.215V70a8.41,8.41,0,0,1-8.328-8.409Z" transform="translate(-24.472 -61.589)"/><path class="b" d="M84.142,61.589A14.627,14.627,0,0,1,69.606,76.215V70a8.41,8.41,0,0,0,8.328-8.409Z" transform="translate(-35.626 -61.589)"/><rect class="b" width="20.711" height="6.236" transform="translate(34.281 14.626) rotate(180)"/></g><rect class="b" width="6.196" height="11.677" transform="translate(42.32 14.41)"/><rect class="b" width="6.196" height="11.677" transform="translate(0 14.41)"/></g><rect class="b" width="6.755" height="6.755" transform="translate(41.098 66.426) rotate(-90)"/><rect class="b" width="26.663" height="2.51" rx="1.255" transform="translate(57.807 68.491) rotate(180)"/><circle class="a" cx="1.138" cy="1.138" r="1.138" transform="translate(43.524 58.532)"/><path class="b" d="M55.338,39.808H53.73a6.575,6.575,0,0,0-5.773,6.523V60.714H61.111V46.331A6.575,6.575,0,0,0,55.338,39.808Zm1.971,17.614h-5.42l1.355-7.282a3.095,3.095,0,0,1,1.29-5.878c.022,0,.043,0,.065,0a3.1,3.1,0,0,1,1.355,5.881Z" transform="translate(-10.058 -8.044)"/></g></svg>