<svg xmlns="http://www.w3.org/2000/svg" xmlns:xlink="http://www.w3.org/1999/xlink" width="111" height="111" viewBox="0 0 111 111"><defs><style>.a{fill:#ff7f41;}.b{fill:#fff;}.c{fill:none;stroke:#fff;stroke-linecap:round;stroke-linejoin:round;stroke-width:2px;}.d{filter:url(#a);}</style><filter id="a" x="0" y="0" width="111" height="111" filterUnits="userSpaceOnUse"><feOffset dx="4" dy="4" input="SourceAlpha"/><feGaussianBlur stdDeviation="4" result="b"/><feFlood flood-color="#050506" flood-opacity="0.18"/><feComposite operator="in" in2="b"/><feComposite in="SourceGraphic"/></filter></defs><g transform="translate(0.741 134.127)"><g class="d" transform="matrix(1, 0, 0, 1, -0.74, -134.13)"><path class="a" d="M43.5,0A43.5,43.5,0,1,1,0,43.5,43.5,43.5,0,0,1,43.5,0Z" transform="translate(8 8)"/></g><g transform="translate(25.106 -108.439)"><path class="b" d="M61.212-76.416l-.337-.337-.069-.046c-.055-.038-.109-.075-.162-.113-.113-.08-.224-.162-.334-.245l-.124-.094c-.119-.092-.237-.187-.352-.282l-.072-.062a13.33,13.33,0,0,1-2.43-2.7l-.228-.228a13.353,13.353,0,0,1-4.171,4.12l4.131,8.144.007-.007L61.2-76.407Z" transform="translate(-30.588 102.965)"/><path class="b" d="M35.819-101.894l-4.132-4.132L27.54-101.88l4.108,4.107A13.334,13.334,0,0,1,35.819-101.894Z" transform="translate(-27.54 106.026)"/><path class="b" d="M43.106-77.065a13.221,13.221,0,0,0,5.458-1.171l0,0q.432-.2.847-.42l.1-.058c.135-.075.268-.151.4-.23l.174-.106c.1-.061.194-.122.289-.185.077-.051.155-.1.231-.155l.163-.112c.112-.08.224-.162.333-.246l.124-.094c.119-.092.237-.187.352-.282l.072-.062a13.355,13.355,0,0,0,2.665-3.062A13.193,13.193,0,0,1,52.5-87.836a13.362,13.362,0,0,1-.236-2.5,13.208,13.208,0,0,1,2.054-7.094l0,0-.018-.029,0,0a13.345,13.345,0,0,0-3.371-3.591l-.005.013a13.211,13.211,0,0,0-6.72-2.519h-.018c-.165-.014-.329-.024-.5-.031l-.091,0c-.164-.006-.329-.01-.495-.01-.15,0-.3,0-.446.008l-.071,0a13.2,13.2,0,0,0-6.467,2.02l-.027-.027a13.334,13.334,0,0,0-4.171,4.12l.019.019a13.223,13.223,0,0,0-2.07,6.125c0,.05-.006.1-.01.15-.005.079-.01.159-.013.239s-.007.162-.01.244c0,.039,0,.077,0,.116,0,.084,0,.169,0,.254A13.271,13.271,0,0,0,43.106-77.065Zm0-20.81a7.536,7.536,0,0,1,6.462,3.652,7.5,7.5,0,0,1,1.08,3.89,7.541,7.541,0,0,1-7.541,7.541,7.535,7.535,0,0,1-6.418-3.583,7.5,7.5,0,0,1-1.123-3.958A7.542,7.542,0,0,1,43.106-97.875Z" transform="translate(-27.815 105.736)"/><path class="b" d="M82.549-97.774l4.108-4.107-4.146-4.146-4.132,4.132A13.334,13.334,0,0,1,82.549-97.774Z" transform="translate(-33.642 106.026)"/><path class="b" d="M57.383-97.43h0a13.208,13.208,0,0,0-2.054,7.094,13.362,13.362,0,0,0,.236,2.5l0,0a13.268,13.268,0,0,0,4.481,7.651l.072.062c.115.1.233.19.352.282l.124.094c.109.084.221.165.334.246.053.038.107.075.162.112l.069.047c.054.036.107.073.162.108.1.062.191.124.289.185l.174.106c.131.078.265.155.4.23l.1.058q.414.224.847.42l0,0A13.221,13.221,0,0,0,68.6-77.065,13.271,13.271,0,0,0,81.87-90.335c0-.085,0-.17,0-.254,0-.039,0-.077,0-.116,0-.082-.006-.163-.01-.244s-.008-.16-.013-.239c0-.05-.005-.1-.01-.15a13.223,13.223,0,0,0-2.07-6.125l.019-.019a13.334,13.334,0,0,0-4.171-4.12l-.027.027a13.2,13.2,0,0,0-6.467-2.02l-.071,0c-.149-.005-.3-.008-.446-.008-.165,0-.331,0-.495.01l-.091,0c-.165.007-.331.017-.5.031H67.5a13.211,13.211,0,0,0-6.72,2.519l-.005-.013c-.119.087-.235.176-.35.267s-.2.161-.3.244A13.35,13.35,0,0,0,57.383-97.43ZM73.312-84.447A7.508,7.508,0,0,1,68.6-82.791a7.541,7.541,0,0,1-7.541-7.541,7.526,7.526,0,0,1,2.74-5.817,7.51,7.51,0,0,1,4.8-1.726,7.542,7.542,0,0,1,7.541,7.542A7.527,7.527,0,0,1,73.312-84.447Z" transform="translate(-30.876 105.736)"/><path class="b" d="M55.445-53.8a9.24,9.24,0,0,1-9.239-9.151H39.375a16.071,16.071,0,0,0,16.07,15.972A16.071,16.071,0,0,0,71.516-62.948H64.685A9.24,9.24,0,0,1,55.445-53.8Z" transform="translate(-28.961 100.855)"/><rect class="b" width="6.844" height="11.846" transform="translate(35.711 26.423)"/><rect class="b" width="6.844" height="11.846" transform="translate(10.414 26.423)"/><path class="b" d="M43.42-42.694a2.768,2.768,0,0,1,1.14-2.024,2.792,2.792,0,0,1,3.262.012,2.765,2.765,0,0,1,1.124,2.012H53.3a7.071,7.071,0,0,0-1.511-4.177,7.138,7.138,0,0,0-11.228.011,7.077,7.077,0,0,0-1.506,4.166Z" transform="translate(-28.923 99.252)"/><path class="b" d="M63.749-42.694a2.77,2.77,0,0,1,1.14-2.024,2.792,2.792,0,0,1,3.262.012,2.771,2.771,0,0,1,1.124,2.012h4.358a7.071,7.071,0,0,0-1.511-4.177,7.138,7.138,0,0,0-11.228.011,7.072,7.072,0,0,0-1.507,4.166Z" transform="translate(-31.363 99.252)"/><circle class="b" cx="1.6" cy="1.6" r="1.6" transform="translate(35.785 13.837)"/><circle class="b" cx="1.6" cy="1.6" r="1.6" transform="translate(14.251 13.837)"/><path class="c" d="M79.449-81.834v22.91s-7.438.9-7.438-7.3" transform="translate(-32.878 103.122)"/><path class="c" d="M34.651-81.834v22.91s7.437.9,7.437-7.3" transform="translate(-28.394 103.122)"/></g></g></svg>