<svg xmlns="http://www.w3.org/2000/svg" xmlns:xlink="http://www.w3.org/1999/xlink" width="80.929" height="80.929" viewBox="0 0 80.929 80.929"><defs><style>.a{fill:#ff7f41;}.b{fill:#fff;}.c{filter:url(#a);}</style><filter id="a" x="0" y="0" width="80.929" height="80.929" filterUnits="userSpaceOnUse"><feOffset dx="4" dy="4" input="SourceAlpha"/><feGaussianBlur stdDeviation="3" result="b"/><feFlood flood-color="#050506" flood-opacity="0.18"/><feComposite operator="in" in2="b"/><feComposite in="SourceGraphic"/></filter></defs><g transform="translate(-135.645 131.127)"><g transform="translate(140.645 -126.127)"><g class="c" transform="matrix(1, 0, 0, 1, -5, -5)"><path class="a" d="M31.465,0A31.465,31.465,0,1,1,0,31.465,31.465,31.465,0,0,1,31.465,0Z" transform="translate(5 5)"/></g></g><path class="b" d="M200.325-97.027l-4.665-4.664-4.679,4.679a14.808,14.808,0,0,0-7.858-2.284,14.844,14.844,0,0,0-8.8,2.885,11.348,11.348,0,0,0-10.431-6.877,11.347,11.347,0,0,0-11.348,11.348A11.347,11.347,0,0,0,163.9-80.593a11.3,11.3,0,0,0,4.568-.964,14.93,14.93,0,0,0,14.659,12.125,14.931,14.931,0,0,0,14.931-14.931,14.819,14.819,0,0,0-2.372-8.022Zm-36.428,9.5a4.418,4.418,0,0,1-4.418-4.419,4.418,4.418,0,0,1,4.418-4.419,4.418,4.418,0,0,1,4.419,4.419A4.418,4.418,0,0,1,163.9-87.522Zm19.227,11.643a8.485,8.485,0,0,1-8.484-8.484,8.485,8.485,0,0,1,8.484-8.485,8.484,8.484,0,0,1,8.483,8.485A8.484,8.484,0,0,1,183.123-75.879Z" transform="translate(-4.327 -8.302)"/><g transform="translate(168.67 -102.958)"><path class="a" d="M191.352-70.071a1.552,1.552,0,0,1-1.223-.592l-4.6-5.721a1.543,1.543,0,0,1-.3-1.341l1.644-7.142a1.555,1.555,0,0,1,.855-1.065l6.655-3.182a1.526,1.526,0,0,1,.684-.158,1.531,1.531,0,0,1,.684.158l6.654,3.169a1.556,1.556,0,0,1,.855,1.066l1.644,7.141a1.588,1.588,0,0,1-.3,1.342l-4.6,5.72a1.59,1.59,0,0,1-1.223.592l-7.417.013Z" transform="translate(-184.858 89.562)"/><path class="b" d="M194.865-89.109a1.287,1.287,0,0,1,.539.118l6.654,3.17a1.275,1.275,0,0,1,.684.855l1.644,7.141a1.23,1.23,0,0,1-.25,1.078l-4.6,5.721a1.253,1.253,0,0,1-.986.474h-7.378a1.253,1.253,0,0,1-.987-.474l-4.6-5.721a1.316,1.316,0,0,1-.25-1.078l1.643-7.141a1.258,1.258,0,0,1,.684-.855L194.312-89a1.572,1.572,0,0,1,.553-.106Zm0-.618h0a1.994,1.994,0,0,0-.816.184l-6.654,3.183a1.861,1.861,0,0,0-1.026,1.276l-1.644,7.141a1.865,1.865,0,0,0,.369,1.6l4.6,5.721a1.859,1.859,0,0,0,1.46.7h7.378a1.859,1.859,0,0,0,1.46-.7l4.6-5.721a1.856,1.856,0,0,0,.369-1.6l-1.644-7.141a1.861,1.861,0,0,0-1.026-1.276l-6.628-3.183a1.887,1.887,0,0,0-.8-.184Z" transform="translate(-184.675 89.727)"/><path class="b" d="M203.374-76.655h-.013c-.013,0-.026,0-.026-.013-.026,0-.053-.013-.079-.013a1.869,1.869,0,0,0-.25-.026.482.482,0,0,1-.131-.013h-.013a3.431,3.431,0,0,1-.71-.118.256.256,0,0,1-.144-.144c0-.013-.013-.013-.013-.026h0l-.171-.053a5.19,5.19,0,0,0-.092-1.854,5.423,5.423,0,0,0-.736-1.723l.132-.118v-.026a.3.3,0,0,1,.066-.2,3.881,3.881,0,0,1,.592-.408h0c.039-.026.079-.039.118-.066a1.949,1.949,0,0,0,.223-.132c.013-.013.039-.026.066-.052s.027-.013.027-.027h0a.438.438,0,0,0,.092-.591.373.373,0,0,0-.3-.145.485.485,0,0,0-.289.106h0l-.027.026c-.026.013-.039.039-.066.053a2.26,2.26,0,0,0-.171.184.624.624,0,0,1-.092.092h0a3.38,3.38,0,0,1-.526.473.209.209,0,0,1-.118.039.173.173,0,0,1-.079-.013h-.026l-.158.105a6.487,6.487,0,0,0-.539-.5,5.255,5.255,0,0,0-2.748-1.092l-.013-.171-.026-.026a.276.276,0,0,1-.106-.171,4.688,4.688,0,0,1,.039-.71v-.013a.462.462,0,0,1,.027-.132c.013-.079.026-.158.039-.25v-.118h0a.425.425,0,0,0-.408-.434.422.422,0,0,0-.289.132.416.416,0,0,0-.118.3h0v.105a.756.756,0,0,0,.039.25c.013.039.013.079.026.131v.013a3.426,3.426,0,0,1,.039.71.276.276,0,0,1-.105.171l-.027.027h0l-.013.171a6.664,6.664,0,0,0-.71.106,5.069,5.069,0,0,0-2.6,1.473l-.132-.092H192.8c-.026,0-.053.013-.079.013a.214.214,0,0,1-.118-.039,3.471,3.471,0,0,1-.526-.487h0a.628.628,0,0,0-.092-.092,2.161,2.161,0,0,0-.171-.185c-.013-.013-.039-.026-.066-.052s-.026-.013-.026-.027h0a.462.462,0,0,0-.29-.105.375.375,0,0,0-.3.144.439.439,0,0,0,.092.592h0c.013,0,.013.013.026.013s.039.039.066.052a1.952,1.952,0,0,0,.223.132.55.55,0,0,1,.118.066h0a3.883,3.883,0,0,1,.592.408.241.241,0,0,1,.066.2v.026h0l.132.118a.453.453,0,0,0-.066.105,5.122,5.122,0,0,0-.736,3.472l-.171.053c0,.013-.013.013-.013.026a.3.3,0,0,1-.144.144,3.283,3.283,0,0,1-.71.118h-.013a.442.442,0,0,0-.132.013,1.848,1.848,0,0,0-.25.026c-.027,0-.053.013-.079.013a.047.047,0,0,0-.039.013h0a.431.431,0,0,0-.342.486.406.406,0,0,0,.421.3.3.3,0,0,0,.105-.013h0c.013,0,.026,0,.026-.013.027,0,.053-.013.079-.013a1.246,1.246,0,0,0,.237-.092c.039-.013.079-.039.118-.053h.013a3.2,3.2,0,0,1,.684-.2h.026a.3.3,0,0,1,.171.066c.013,0,.013.013.026.013h0l.185-.026a5.2,5.2,0,0,0,1.722,2.472,5.406,5.406,0,0,0,.566.381l-.079.171c0,.013.013.013.013.026a.27.27,0,0,1,.027.211,3.714,3.714,0,0,1-.342.618v.013c-.027.039-.053.066-.079.105-.053.066-.092.132-.145.21a.311.311,0,0,0-.039.066.047.047,0,0,1-.013.026h0a.416.416,0,0,0,.171.566.355.355,0,0,0,.158.039.474.474,0,0,0,.395-.25h0a.044.044,0,0,1,.013-.026.266.266,0,0,1,.039-.066c.039-.092.052-.158.079-.237l.039-.118h0a3.081,3.081,0,0,1,.276-.658.34.34,0,0,1,.171-.118c.013,0,.013,0,.027-.013h0l.092-.171a5.142,5.142,0,0,0,1.841.342,4.79,4.79,0,0,0,1.144-.131,5.883,5.883,0,0,0,.684-.2l.079.144c.013,0,.013,0,.026.013a.244.244,0,0,1,.171.118,4.526,4.526,0,0,1,.276.658v.013l.039.118a1.641,1.641,0,0,0,.079.237c.013.027.026.039.039.066a.047.047,0,0,0,.013.026h0a.447.447,0,0,0,.395.25.353.353,0,0,0,.158-.039.392.392,0,0,0,.2-.237.48.48,0,0,0-.026-.329h0c0-.013-.013-.013-.013-.026a.286.286,0,0,0-.039-.066,1.227,1.227,0,0,0-.144-.21c-.027-.039-.053-.066-.079-.105v-.013a2.95,2.95,0,0,1-.342-.618.367.367,0,0,1,.013-.211c0-.013.013-.013.013-.026h0l-.066-.158a5.1,5.1,0,0,0,1.736-1.7,5.107,5.107,0,0,0,.552-1.184l.158.026c.013,0,.013-.013.026-.013a.332.332,0,0,1,.171-.066h.027a3.28,3.28,0,0,1,.684.2h.013c.039.013.079.039.118.053a1.291,1.291,0,0,0,.237.092c.026,0,.052.013.079.013a.049.049,0,0,1,.039.013h0a.284.284,0,0,0,.1.013.442.442,0,0,0,.421-.3.505.505,0,0,0-.381-.433Zm-6.089-.645-.579.276-.579-.276-.145-.618.395-.5h.644l.395.5-.131.618Zm3.432-1.368a4.135,4.135,0,0,1,.092,1.328l-2.012-.579a.356.356,0,0,1-.25-.421.314.314,0,0,1,.079-.144l1.591-1.434a4.218,4.218,0,0,1,.5,1.249Zm-1.131-2.038-1.722,1.223a.349.349,0,0,1-.46-.079.293.293,0,0,1-.066-.144l-.118-2.144a3.988,3.988,0,0,1,2.367,1.144Zm-3.813-1.079.421-.078-.118,2.1a.36.36,0,0,1-.355.342.314.314,0,0,1-.158-.039l-1.749-1.249a4.015,4.015,0,0,1,1.96-1.079Zm-2.591,1.867,1.565,1.395a.35.35,0,0,1,.039.486.259.259,0,0,1-.158.105l-2.039.592a4.233,4.233,0,0,1,.592-2.578Zm-.355,3.564,2.092-.355a.354.354,0,0,1,.368.276.368.368,0,0,1-.013.21h0l-.8,1.934a4.149,4.149,0,0,1-1.644-2.065Zm4.8,2.617a4.269,4.269,0,0,1-.92.106,4.446,4.446,0,0,1-1.328-.211l1.039-1.88a.345.345,0,0,1,.421-.092.57.57,0,0,1,.158.144h0l1.013,1.828c-.118.039-.25.066-.381.105Zm2.564-1.828a4.18,4.18,0,0,1-1.263,1.276l-.828-1.986a.354.354,0,0,1,.184-.408.424.424,0,0,1,.184-.039l2.1.355a2.647,2.647,0,0,1-.381.8Z" transform="translate(-186.517 87.992)"/></g></g></svg>