<svg xmlns="http://www.w3.org/2000/svg" xmlns:xlink="http://www.w3.org/1999/xlink" width="40.619" height="40.58" viewBox="0 0 40.619 40.58"><defs><style>.a{fill:#ff7f41;}.b{filter:url(#a);}</style><filter id="a" x="0" y="0" width="40.619" height="40.58" filterUnits="userSpaceOnUse"><feOffset dx="4" dy="4" input="SourceAlpha"/><feGaussianBlur stdDeviation="4" result="b"/><feFlood flood-opacity="0.18"/><feComposite operator="in" in2="b"/><feComposite in="SourceGraphic"/></filter></defs><g transform="translate(-309.249 -91.408)"><g transform="translate(333.868 99.408) rotate(90)"><g class="b" transform="matrix(0, -1, 1, 0, -8, 24.62)"><path class="a" d="M16.58,2.148l-.519-.519L15.009.577,14.431,0,10.563,3.834A6.918,6.918,0,0,0,6.325,2.816l-.049,0q-.117.011-.234.026l-.08.01-.213.033-.1.018-.142.028-.174.038L5.228,3q-.116.029-.232.063l-.06.017q-.235.07-.466.157h0A6.918,6.918,0,0,0,2.025,14.594l.095.092.043.042.094.087.093.083.059.052a6.889,6.889,0,0,0,3.019,1.494v.014a6.948,6.948,0,0,0,3.055-.019v-.02a6.877,6.877,0,0,0,3.126-1.639l.027-.025c.056-.053.112-.106.167-.161s.12-.123.178-.186l.032-.034c.058-.064.116-.128.171-.194l.006-.007a6.883,6.883,0,0,0,1.548-3.4l.007,0a6.916,6.916,0,0,0-1.018-4.807ZM9.692,12.483a3.94,3.94,0,1,1,.468-4.988A3.93,3.93,0,0,1,9.692,12.483Z" transform="translate(24.62 8) rotate(90)"/></g></g></g></svg>