<svg xmlns="http://www.w3.org/2000/svg" xmlns:xlink="http://www.w3.org/1999/xlink" width="80.929" height="80.929" viewBox="0 0 80.929 80.929"><defs><style>.a{fill:#ff7f41;}.b{fill:#fff;}.c{filter:url(#a);}</style><filter id="a" x="0" y="0" width="80.929" height="80.929" filterUnits="userSpaceOnUse"><feOffset dx="4" dy="4" input="SourceAlpha"/><feGaussianBlur stdDeviation="3" result="b"/><feFlood flood-color="#050506" flood-opacity="0.18"/><feComposite operator="in" in2="b"/><feComposite in="SourceGraphic"/></filter></defs><g transform="translate(-135.645 -2.259)"><g transform="translate(140.645 7.259)"><g class="c" transform="matrix(1, 0, 0, 1, -5, -5)"><circle class="a" cx="31.465" cy="31.465" r="31.465" transform="translate(5 5)"/></g></g><g transform="translate(154.281 17.506)"><path class="b" d="M194.143,49.872l-1.85-1.85-1.856,1.855a5.854,5.854,0,0,0-6.6.239,4.5,4.5,0,1,0-2.326,5.891,5.919,5.919,0,1,0,10.8-4.3Zm-14.449,3.77a1.753,1.753,0,1,1,1.752-1.753A1.752,1.752,0,0,1,179.694,53.642Zm7.626,4.618a3.365,3.365,0,1,1,3.365-3.365A3.366,3.366,0,0,1,187.32,58.259Z" transform="translate(-166.839 -32.093)"/><path class="b" d="M197.68,34.284c-.022-1.146-.043-2.228-.043-3.275a1.485,1.485,0,0,0-1.485-1.485c-6.352,0-11.19-1.825-15.221-5.745a1.484,1.484,0,0,0-2.071,0c-4.031,3.92-8.866,5.745-15.219,5.745a1.485,1.485,0,0,0-1.485,1.485c0,1.047-.021,2.131-.043,3.277-.2,10.662-.482,25.264,17.3,31.426a1.494,1.494,0,0,0,.973,0C198.161,59.548,197.883,44.946,197.68,34.284ZM179.9,60.176c-13.074-4.751-12.878-15.154-12.7-24.345.011-.551.02-1.085.027-1.61a19.643,19.643,0,0,0,12.675-4.8,19.643,19.643,0,0,0,12.674,4.8c.006.523.018,1.059.027,1.61C192.774,45.021,192.971,55.426,179.9,60.176Z" transform="translate(-162.068 -23.358)"/></g></g></svg>