<svg xmlns="http://www.w3.org/2000/svg" xmlns:xlink="http://www.w3.org/1999/xlink" width="101.062" height="101.062" viewBox="0 0 101.062 101.062"><defs><style>.a{fill:#ff7f41;}.b{fill:#fff;}.c{filter:url(#a);}</style><filter id="a" x="0" y="0" width="101.062" height="101.062" filterUnits="userSpaceOnUse"><feOffset dx="4" dy="4" input="SourceAlpha"/><feGaussianBlur stdDeviation="3" result="b"/><feFlood flood-color="#050506" flood-opacity="0.18"/><feComposite operator="in" in2="b"/><feComposite in="SourceGraphic"/></filter></defs><g transform="translate(-2.259 -2.259)"><g transform="translate(7.259 7.259)"><g class="c" transform="matrix(1, 0, 0, 1, -5, -5)"><circle class="a" cx="41.531" cy="41.531" r="41.531" transform="translate(5 5)"/></g><g transform="translate(28.548 30.412)"><path class="b" d="M63.242,76.367c-.366.149-.738.29-1.119.418a19,19,0,0,1-13.608-.577A14.635,14.635,0,0,0,44.3,79.831a14.4,14.4,0,0,0-3.064,8.475h8.873a5.638,5.638,0,0,1,11.24,0h8.863a14.385,14.385,0,0,0-3.073-8.5A14.641,14.641,0,0,0,63.242,76.367Z" transform="translate(-41.239 -48.694)"/><path class="b" d="M58.307,43.458" transform="translate(-43.968 -43.458)"/></g></g><path class="b" d="M61.233,55.2a5.979,5.979,0,0,1-8.427,8.428l-6.647,6.646A15.371,15.371,0,0,0,67.886,48.544Z" transform="translate(-6.219 -6.6)"/><g transform="translate(22.48 18.71)"><path class="b" d="M0,0H41.642a2.277,2.277,0,0,1,2.277,2.277V13.548a2.277,2.277,0,0,1-2.277,2.277H0a0,0,0,0,1,0,0V0A0,0,0,0,1,0,0Z" transform="translate(11.4 25.392) rotate(-35.322)"/><rect class="b" width="11.833" height="7.841" transform="translate(2.702 36.766) rotate(-35.322)"/><rect class="b" width="3.195" height="3.195" transform="translate(0 41.528) rotate(-35.322)"/><circle class="a" cx="4.717" cy="4.717" r="4.717" transform="translate(31.403 22.394)"/></g><path class="b" d="M52.607,66.5l-7.692,5.733a16.758,16.758,0,0,0,2.929,2.426C50.059,76.3,52.607,66.5,52.607,66.5Z" transform="translate(-6.02 -9.47)"/></g></svg>