<svg xmlns="http://www.w3.org/2000/svg" xmlns:xlink="http://www.w3.org/1999/xlink" width="99.049" height="99.049" viewBox="0 0 99.049 99.049"><defs><style>.a{fill:#ff7f41;}.b{fill:#fff;}.c{filter:url(#a);}</style><filter id="a" x="0" y="0" width="99.049" height="99.049" filterUnits="userSpaceOnUse"><feOffset dx="4" dy="4" input="SourceAlpha"/><feGaussianBlur stdDeviation="4" result="b"/><feFlood flood-color="#050506" flood-opacity="0.18"/><feComposite operator="in" in2="b"/><feComposite in="SourceGraphic"/></filter></defs><g transform="translate(0.74 0.74)"><g transform="translate(7.26 7.26)"><g class="c" transform="matrix(1, 0, 0, 1, -8, -8)"><circle class="a" cx="37.525" cy="37.525" r="37.525" transform="translate(8 8)"/></g></g><g transform="translate(18.076 27.102)"><path class="b" d="M45.147,33.4V45.214a11.819,11.819,0,0,1-23.638,0V33.4h7.222V45.214h0a4.6,4.6,0,1,0,9.2,0V33.4Z" transform="translate(-21.509 -33.399)"/><g transform="translate(23.638 5.645)"><path class="b" d="M77.289,56.251a8.861,8.861,0,0,1,8.775-8.861V40.839a15.412,15.412,0,0,0,0,30.823V65.111A8.861,8.861,0,0,1,77.289,56.251Z" transform="translate(-57.009 -40.837)"/><path class="b" d="M52.745,40.836l-.1,0v6.551l.087,0a8.863,8.863,0,1,1,0,17.726l-.087,0v6.551l.1,0a15.414,15.414,0,1,0,0-30.828Z" transform="translate(-52.649 -40.836)"/></g></g></g></svg>