<svg xmlns="http://www.w3.org/2000/svg" xmlns:xlink="http://www.w3.org/1999/xlink" width="80.994" height="80.994" viewBox="0 0 80.994 80.994"><defs><style>.a{fill:#ff7f41;}.b{fill:#fff;}.c{filter:url(#a);}</style><filter id="a" x="0" y="0" width="80.994" height="80.994" filterUnits="userSpaceOnUse"><feOffset dx="4" dy="4" input="SourceAlpha"/><feGaussianBlur stdDeviation="3" result="b"/><feFlood flood-color="#050506" flood-opacity="0.18"/><feComposite operator="in" in2="b"/><feComposite in="SourceGraphic"/></filter></defs><g transform="translate(-2.26 -2.26)"><g transform="translate(7.26 7.26)"><g class="c" transform="matrix(1, 0, 0, 1, -5, -5)"><circle class="a" cx="31.497" cy="31.497" r="31.497" transform="translate(5 5)"/></g><path class="b" d="M34.446,47.443a16.721,16.721,0,0,1,.64-1.883,31.235,31.235,0,0,1,3.457-6.1c1.4-2.005,2.932-3.907,4.463-5.811,1.552-1.929,3.139-3.831,4.519-5.892.33-.492.636-1,.935-1.534.255.449.508.879.78,1.3,1.07,1.641,2.293,3.169,3.517,4.694,1.946,2.423,3.934,4.814,5.708,7.37a31.036,31.036,0,0,1,3.36,5.954,14.344,14.344,0,0,1,1.033,3.937,13.388,13.388,0,0,1-.2,3.813.281.281,0,0,1-.023.054,6.7,6.7,0,0,1-.334,1.413,14.34,14.34,0,0,1-10.374,9.875,13.346,13.346,0,0,1-4.225.4,13.644,13.644,0,0,1-3.35-.58c-.061-.019-.12-.047-.181-.071a11.293,11.293,0,0,1-2.317-.94,14.317,14.317,0,0,1-6.418-6.632s-.707-1.752-.759-1.911a13.7,13.7,0,0,1-.656-4.806,11,11,0,0,1,.118-1.208" transform="translate(-16.965 -14.139)"/><path class="b" d="M58.879,56.136" transform="translate(-25.989 -24.994)"/><path class="b" d="M52.351,68.575" transform="translate(-23.62 -29.507)"/></g><rect class="a" width="16.909" height="1.791" transform="translate(19.457 40.563)"/><g transform="translate(32.165 47.503)"><path class="a" d="M48.237,79.031l-.029-.022Z" transform="translate(-47.023 -73.536)"/><path class="a" d="M48.072,78.9l-.017-.014Z" transform="translate(-46.967 -73.491)"/><path class="a" d="M51.306,70.423h0Z" transform="translate(-48.147 -70.421)"/><path class="a" d="M50.748,70.436h0Z" transform="translate(-47.944 -70.426)"/><path class="a" d="M50.934,70.424h0Z" transform="translate(-48.012 -70.421)"/><path class="a" d="M48.582,79.271l-.066-.042Z" transform="translate(-47.135 -73.616)"/><path class="a" d="M48.775,79.387l-.092-.053Z" transform="translate(-47.195 -73.654)"/><path class="a" d="M48.411,79.158l-.038-.026Z" transform="translate(-47.083 -73.581)"/><path class="a" d="M49.06,79.534c-.066-.03-.131-.062-.195-.1C48.929,79.472,48.994,79.5,49.06,79.534Z" transform="translate(-47.261 -73.692)"/><path class="a" d="M55.928,74.854l0,.034Z" transform="translate(-49.824 -72.029)"/><path class="a" d="M53.486,75.184a3.058,3.058,0,0,1-4.314,2.786,3.056,3.056,0,0,0,4.314-2.786c0-.02,0-.04,0-.059C53.485,75.144,53.486,75.164,53.486,75.184Z" transform="translate(-47.373 -72.127)"/><path class="a" d="M55.937,75l0,.056Z" transform="translate(-49.827 -72.08)"/><path class="a" d="M48.329,79.1l-.076-.057Z" transform="translate(-47.039 -73.549)"/><path class="a" d="M46.435,76.119h0a3.051,3.051,0,0,0,1.033,1.762A3.057,3.057,0,0,1,46.435,76.119Z" transform="translate(-46.379 -72.488)"/><path class="a" d="M48.486,79.209l-.054-.036Z" transform="translate(-47.104 -73.596)"/><path class="a" d="M48.66,79.32l-.04-.025Z" transform="translate(-47.172 -73.64)"/><path class="a" d="M49.172,79.59h0Z" transform="translate(-47.372 -73.747)"/><path class="a" d="M48.851,79.43l-.024-.013Z" transform="translate(-47.247 -73.684)"/><path class="a" d="M48.162,78.972l-.081-.065Z" transform="translate(-46.977 -73.499)"/><path class="a" d="M51.145,70.42l.1,0Z" transform="translate(-48.089 -70.42)"/><path class="a" d="M50.967,70.422l.113,0Z" transform="translate(-48.024 -70.42)"/><path class="a" d="M55.657,74.048a3.027,3.027,0,0,0-.472-1.415l0,0A3.041,3.041,0,0,1,55.657,74.048Z" transform="translate(-49.553 -71.223)"/><path class="a" d="M55.94,75.083v0Z" transform="translate(-49.828 -72.112)"/><path class="a" d="M50.755,70.432c.038,0,.076-.006.114-.007C50.831,70.426,50.793,70.429,50.755,70.432Z" transform="translate(-47.947 -70.422)"/><path class="a" d="M55.932,74.908c0,.018,0,.037,0,.055C55.934,74.945,55.933,74.926,55.932,74.908Z" transform="translate(-49.825 -72.048)"/><path class="a" d="M52.828,70.883a3.039,3.039,0,0,0-1.5-.459,3.038,3.038,0,0,1,1.49.465Z" transform="translate(-48.156 -70.421)"/><path class="a" d="M49.866,70.436a3.044,3.044,0,0,0-1.549.577v0A3.043,3.043,0,0,1,49.866,70.436Z" transform="translate(-47.062 -70.426)"/><path class="a" d="M52.461,73.476c0-.02,0-.04,0-.059v-.027l0-.056c0-.018,0-.037,0-.055l0-.034a3.041,3.041,0,0,0-.477-1.411l0,0a3.067,3.067,0,0,0-.96-.949l-.006.006a3.038,3.038,0,0,0-1.49-.465h-.017l-.1,0-.113,0H49.27c-.038,0-.076,0-.114.007h0a3.043,3.043,0,0,0-1.548.58v0a3.055,3.055,0,0,0-1.2,3.044h0a3.057,3.057,0,0,0,1.032,1.762l.017.014.081.065.029.022.076.057.038.026.054.036.066.042.04.025.092.053.024.013c.064.034.129.066.195.1h0a3.058,3.058,0,0,0,4.314-2.786Z" transform="translate(-46.348 -70.42)"/></g><rect class="a" width="8.047" height="1.698" transform="translate(24.689 49.711)"/><g transform="translate(35.108 37.75)"><path class="a" d="M66.109,57.1,64.631,55.62,63.148,57.1a4.679,4.679,0,0,0-5.278.191A3.6,3.6,0,1,0,56.011,62a4.73,4.73,0,1,0,8.627-3.432ZM54.564,60.11a1.4,1.4,0,1,1,1.4-1.4A1.4,1.4,0,0,1,54.564,60.11Zm6.084,3.711a2.7,2.7,0,1,1,2.7-2.7A2.7,2.7,0,0,1,60.648,63.822Z" transform="translate(-50.967 -55.113)"/></g></g></svg>